<?xml version="1.0" encoding="UTF-8"?>
<svg version="1.1" xmlns="http://www.w3.org/2000/svg" width="714" height="138">
<path d="M0 0 C2.18530273 -0.38095093 2.18530273 -0.38095093 4.93359375 -0.38818359 C5.96226563 -0.39764008 6.9909375 -0.40709656 8.05078125 -0.4168396 C9.16839844 -0.41076691 10.28601563 -0.40469421 11.4375 -0.3984375 C13.16226562 -0.40274277 13.16226562 -0.40274277 14.921875 -0.40713501 C17.36312347 -0.40918068 19.80438815 -0.4036159 22.24560547 -0.39111328 C25.9570872 -0.37518418 29.66746036 -0.390885 33.37890625 -0.41015625 C35.75260655 -0.40817162 38.12630617 -0.40432341 40.5 -0.3984375 C41.60142334 -0.40451019 42.70284668 -0.41058289 43.83764648 -0.4168396 C51.75630576 -0.34578596 59.01141503 0.57216567 65.875 4.75 C70.72175543 9.8818587 73.0984159 15.41835762 73.16113281 22.45800781 C73.17074036 23.33281799 73.1803479 24.20762817 73.19024658 25.10894775 C73.19449646 26.04752625 73.19874634 26.98610474 73.203125 27.953125 C73.20882507 28.92731384 73.21452515 29.90150269 73.22039795 30.9052124 C73.22983734 32.96625689 73.23637772 35.02731641 73.24023438 37.08837891 C73.24992141 40.22455551 73.2809475 43.36007138 73.3125 46.49609375 C73.31903246 48.50260029 73.32428198 50.5091115 73.328125 52.515625 C73.3404718 53.44610657 73.3528186 54.37658813 73.36553955 55.33526611 C73.34119244 62.53465855 72.37888195 68.26428576 67.5 73.875 C62.64705882 78 62.64705882 78 59 78 C59.17539307 78.62560822 59.35078613 79.25121643 59.53149414 79.89578247 C61.35744811 86.41460672 63.17256222 92.93637964 64.98144531 99.45996094 C65.65771088 101.89334989 66.33672543 104.32597662 67.01855469 106.7578125 C67.9988018 110.25583718 68.96909111 113.75649464 69.9375 117.2578125 C70.24373291 118.34240753 70.54996582 119.42700256 70.86547852 120.54446411 C71.14576904 121.56506927 71.42605957 122.58567444 71.71484375 123.63720703 C71.96355225 124.52989288 72.21226074 125.42257874 72.46850586 126.34231567 C73.06532261 129.32663929 73.22340174 131.96451885 73 135 C70.06853667 137.93146333 67.51559254 137.29161443 63.50585938 137.32226562 C62.53455078 137.31904297 61.56324219 137.31582031 60.5625 137.3125 C59.59505859 137.32861328 58.62761719 137.34472656 57.63085938 137.36132812 C56.70208984 137.36197266 55.77332031 137.36261719 54.81640625 137.36328125 C53.53938843 137.36775269 53.53938843 137.36775269 52.23657227 137.37231445 C49.43598688 136.90611069 48.78371032 136.17459907 47 134 C46.14570618 131.80592346 46.14570618 131.80592346 45.46606445 129.22485352 C45.20602127 128.25697403 44.94597809 127.28909454 44.67805481 126.29188538 C44.40917953 125.24810226 44.14030426 124.20431915 43.86328125 123.12890625 C43.43682564 121.51809425 43.43682564 121.51809425 43.00175476 119.8747406 C42.40279184 117.60388977 41.80882608 115.33171587 41.21948242 113.05834961 C40.31619405 109.57673825 39.39674768 106.09970762 38.47460938 102.62304688 C37.8948745 100.41691841 37.3160672 98.21054594 36.73828125 96.00390625 C36.46333328 94.96214737 36.18838531 93.92038849 35.90510559 92.84706116 C35.65451889 91.87602951 35.40393219 90.90499786 35.14575195 89.90454102 C34.92385696 89.05199234 34.70196198 88.19944366 34.4733429 87.32106018 C34 85 34 85 34 81 C30.7 81 27.4 81 24 81 C24.01047363 82.62534668 24.02094727 84.25069336 24.03173828 85.92529297 C24.06785177 91.93731496 24.09086891 97.94932731 24.10986328 103.96142578 C24.11994064 106.56691091 24.1336027 109.17238469 24.15087891 111.77783203 C24.17505102 115.51597899 24.1864656 119.25397685 24.1953125 122.9921875 C24.20563507 124.16304901 24.21595764 125.33391052 24.22659302 126.54025269 C24.22674408 127.62122223 24.22689514 128.70219177 24.22705078 129.81591797 C24.231492 130.77078094 24.23593323 131.72564392 24.24050903 132.70944214 C24 135 24 135 22 137 C18.54056667 137.45091675 15.04795566 137.32406422 11.5625 137.3125 C10.59505859 137.32861328 9.62761719 137.34472656 8.63085938 137.36132812 C7.70208984 137.36197266 6.77332031 137.36261719 5.81640625 137.36328125 C4.53938843 137.36775269 4.53938843 137.36775269 3.23657227 137.37231445 C0.42861603 136.90488369 -0.28222943 136.24571744 -2 134 C-2.37473011 131.5933609 -2.37473011 131.5933609 -2.3742218 128.68615723 C-2.38123611 127.58411453 -2.38825043 126.48207184 -2.39547729 125.34663391 C-2.38783356 124.13718613 -2.38018982 122.92773834 -2.37231445 121.68164062 C-2.37596512 120.40830368 -2.37961578 119.13496674 -2.38337708 117.82304382 C-2.39279015 114.32922921 -2.38335736 110.83569454 -2.37004495 107.34190178 C-2.35873692 103.6877729 -2.36283745 100.03365794 -2.36479187 96.3795166 C-2.36567505 90.24271058 -2.35458945 84.10601498 -2.33618164 77.96923828 C-2.3150136 70.87156463 -2.31150398 63.77405276 -2.3177436 56.67635393 C-2.32343597 49.85210055 -2.3177931 43.02790421 -2.30657005 36.20365906 C-2.30192238 33.29781541 -2.30105094 30.39200663 -2.3031559 27.48616028 C-2.30538722 23.43014023 -2.29093816 19.37434732 -2.2746582 15.31835938 C-2.27713562 14.10891159 -2.27961304 12.89946381 -2.28216553 11.65336609 C-2.27508072 10.55132339 -2.26799591 9.4492807 -2.26069641 8.31384277 C-2.25864354 7.35446556 -2.25659067 6.39508835 -2.25447559 5.4066391 C-2 3 -2 3 0 0 Z M24 25 C24 35.23 24 45.46 24 56 C26.866875 56.061875 29.73375 56.12375 32.6875 56.1875 C33.58170654 56.21481201 34.47591309 56.24212402 35.3972168 56.27026367 C36.47483276 56.28150269 36.47483276 56.28150269 37.57421875 56.29296875 C38.30213623 56.3086792 39.03005371 56.32438965 39.7800293 56.34057617 C42.83841127 55.87137537 44.60088233 54.95387508 47 53 C47.70469745 50.33863109 47.70469745 50.33863109 47.5234375 47.30859375 C47.51183594 46.19935547 47.50023438 45.09011719 47.48828125 43.94726562 C47.45089844 42.78904297 47.41351563 41.63082031 47.375 40.4375 C47.36082031 39.27541016 47.34664062 38.11332031 47.33203125 36.91601562 C47.48454201 31.28265771 47.48454201 31.28265771 46 26 C43.17588235 25.05862745 41.47081968 24.88274618 38.55078125 24.90234375 C37.78677002 24.90484131 37.02275879 24.90733887 36.2355957 24.90991211 C35.27097412 24.91901611 34.30635254 24.92812012 33.3125 24.9375 C30.239375 24.958125 27.16625 24.97875 24 25 Z " fill="#FFFFFF" transform="translate(2,1)"/>
<path d="M0 0 C2.19220185 0.01608687 4.38256087 0.00007886 6.57470703 -0.01904297 C17.47834768 -0.03694701 26.89287606 0.65231859 35.07080078 8.50048828 C41.01334591 15.41441098 40.84603122 24.52421303 40.84106445 33.19702148 C40.84442307 34.05004852 40.84778168 34.90307556 40.85124207 35.7819519 C40.86069452 38.58528117 40.86269231 41.38855034 40.86376953 44.19189453 C40.86698612 46.15333582 40.87035049 48.11477686 40.87385559 50.07621765 C40.87983263 54.18240922 40.88169696 58.28857978 40.88110352 62.39477539 C40.88100199 67.63657538 40.89465124 72.87823965 40.91187572 78.12000751 C40.92303601 82.17024851 40.92502149 86.22045711 40.92449379 90.2707119 C40.92566795 92.20225683 40.93005777 94.13380275 40.93782616 96.06533241 C41.03447143 122.57704233 41.03447143 122.57704233 32.19580078 132.07861328 C24.12580715 138.3522128 12.24419248 137.83461804 2.57080078 137.70361328 C1.37326172 137.70683594 0.17572266 137.71005859 -1.05810547 137.71337891 C-12.10785759 137.64681413 -21.77900252 137.02899359 -30.30419922 129.39111328 C-33.90005305 124.79199636 -35.41681102 119.98803539 -35.45137024 114.21896362 C-35.45852554 113.39491531 -35.46568085 112.570867 -35.47305298 111.72184753 C-35.47574188 110.82621597 -35.47843079 109.93058441 -35.48120117 109.0078125 C-35.48777237 108.05768784 -35.49434357 107.10756317 -35.50111389 106.12864685 C-35.5208226 102.98436399 -35.53250541 99.84012888 -35.54248047 96.69580078 C-35.546556 95.61972691 -35.55063152 94.54365303 -35.55483055 93.43497086 C-35.575683 87.7370854 -35.58998715 82.03922394 -35.59936523 76.34130859 C-35.6104154 70.4704241 -35.64480195 64.59992009 -35.68453693 58.72916985 C-35.71074685 54.20282308 -35.71906108 49.67656627 -35.72264671 45.1501503 C-35.72750294 42.98692384 -35.73908927 40.82370114 -35.75768471 38.66054916 C-35.78216421 35.62365791 -35.78109465 32.58774199 -35.77416992 29.55078125 C-35.78697998 28.66729507 -35.79979004 27.7838089 -35.81298828 26.87355042 C-35.74858308 19.0734215 -33.87879987 11.56329015 -28.17919922 5.95361328 C-19.89966215 -0.21873944 -9.88975273 -0.08626713 0 0 Z M-7.30419922 27.39111328 C-8.8112816 30.40527804 -8.45152433 33.51644945 -8.44946289 36.82250977 C-8.4528215 37.58851501 -8.45618011 38.35452026 -8.4596405 39.14373779 C-8.46916204 41.6832439 -8.47109419 44.22268417 -8.47216797 46.76220703 C-8.47537961 48.52336149 -8.47874361 50.28451567 -8.48225403 52.04566956 C-8.48824824 55.74033222 -8.49009362 59.43497148 -8.48950195 63.12963867 C-8.48940029 67.86894772 -8.50305541 72.60810709 -8.52027416 77.34738064 C-8.53138057 80.98558749 -8.53342158 84.62375799 -8.53289223 88.26198006 C-8.53407429 90.0095172 -8.53850866 91.75705522 -8.54622459 93.50457573 C-8.55599754 95.94659859 -8.55315726 98.38829439 -8.54711914 100.83032227 C-8.55273865 101.55510269 -8.55835815 102.27988312 -8.56414795 103.02662659 C-8.54095097 106.70957223 -8.40551579 108.23913842 -6.30419922 111.39111328 C-4.40880287 111.837628 -4.40880287 111.837628 -2.24169922 111.75439453 C-1.04673828 111.75342773 -1.04673828 111.75342773 0.17236328 111.75244141 C1.00509766 111.73632812 1.83783203 111.72021484 2.69580078 111.70361328 C3.52853516 111.70683594 4.36126953 111.71005859 5.21923828 111.71337891 C9.96351751 111.92078467 9.96351751 111.92078467 13.69580078 109.39111328 C13.90985169 106.81817775 13.99990115 104.35147223 14.00219727 101.77612305 C14.01052078 100.99061066 14.0188443 100.20509827 14.02742004 99.39578247 C14.05157534 96.79131154 14.06029839 94.1870907 14.06689453 91.58251953 C14.075856 89.77652407 14.08497774 87.9705294 14.09425354 86.16453552 C14.11076066 82.37570386 14.11844689 78.58696076 14.12133789 74.7980957 C14.12672643 69.93742551 14.1644181 65.07758454 14.21008205 60.21714878 C14.23978813 56.48627159 14.24706002 52.75559572 14.24806404 49.02461052 C14.25227849 47.23238256 14.26476163 45.44015466 14.28558159 43.64804268 C14.31236644 41.14323626 14.30771074 38.64037335 14.29516602 36.13549805 C14.31000031 35.39201614 14.32483459 34.64853424 14.34011841 33.88252258 C14.36321613 31.57346751 14.36321613 31.57346751 13.69580078 28.39111328 C10.09423622 25.38736745 7.25356041 25.00267981 2.63330078 25.07861328 C1.09996094 25.08441406 1.09996094 25.08441406 -0.46435547 25.09033203 C-3.27601019 25.38812765 -4.95254262 25.85411832 -7.30419922 27.39111328 Z " fill="#FFFFFF" transform="translate(290.30419921875,0.60888671875)"/>
<path d="M0 0 C2.00788324 -0.0171058 4.01548051 -0.06098558 6.02294922 -0.10522461 C14.60421755 -0.16072535 23.61784 0.11119084 30.40356445 6.03613281 C38.38679506 14.67044713 37.59105753 25.47305775 37.59716797 36.54516602 C37.60941406 37.72852539 37.62166016 38.91188477 37.63427734 40.13110352 C37.63621094 41.26290039 37.63814453 42.39469727 37.64013672 43.56079102 C37.64424561 44.58978516 37.64835449 45.6187793 37.65258789 46.67895508 C37.40966797 49.29516602 37.40966797 49.29516602 35.40966797 52.29516602 C15.07875009 50.96424814 15.07875009 50.96424814 11.40966797 47.29516602 C11.20589112 43.49887889 11.06273153 39.70908529 10.97998047 35.90844727 C10.94904297 35.11051758 10.91810547 34.31258789 10.88623047 33.49047852 C10.85650146 32.39243896 10.85650146 32.39243896 10.82617188 31.2722168 C10.29687513 28.75976368 9.42554823 27.84704755 7.40966797 26.29516602 C4.73681617 25.89470885 4.73681617 25.89470885 1.84716797 26.04516602 C0.87650391 26.06063477 -0.09416016 26.07610352 -1.09423828 26.09204102 C-3.58845643 26.13873071 -3.58845643 26.13873071 -5.59033203 27.29516602 C-5.59033203 36.53516602 -5.59033203 45.77516602 -5.59033203 55.29516602 C-1.54525391 56.54233398 -1.54525391 56.54233398 2.58154297 57.81469727 C5.19672724 58.62699288 7.81104401 59.44202421 10.42529297 60.25732422 C12.24015893 60.82171512 14.05591081 61.38326553 15.87255859 61.94189453 C18.48628004 62.74617151 21.09662673 63.56066902 23.70654297 64.37719727 C24.51710144 64.62419876 25.32765991 64.87120026 26.16278076 65.12568665 C33.54472113 67.45555231 33.54472113 67.45555231 36.40966797 70.29516602 C37.30996818 72.99606666 37.540089 74.57471604 37.55493164 77.34838867 C37.56131149 78.15998444 37.56769135 78.9715802 37.57426453 79.80776978 C37.57537735 80.68275116 37.57649017 81.55773254 37.57763672 82.45922852 C37.58262932 83.81919449 37.58262932 83.81919449 37.58772278 85.20663452 C37.5927877 87.12822971 37.59513124 89.04983369 37.5949707 90.97143555 C37.59714407 93.88809078 37.61526793 96.80435961 37.63427734 99.72094727 C37.63721411 101.59203973 37.63919701 103.46313398 37.64013672 105.33422852 C37.64732224 106.19706451 37.65450775 107.05990051 37.66191101 107.94888306 C37.63146265 116.16814649 36.86193947 123.81138369 31.40966797 130.29516602 C23.23303026 137.96076387 13.04837624 137.61836814 2.40966797 137.54516602 C0.72357422 137.55676758 0.72357422 137.55676758 -0.99658203 137.56860352 C-10.74227919 137.5458332 -19.99784925 136.96964424 -27.59033203 130.29516602 C-33.37625083 122.51366579 -33.20410235 114.51418069 -32.90283203 105.17016602 C-32.87768972 103.81864529 -32.85488711 102.46707892 -32.83447266 101.11547852 C-32.77599717 97.84085102 -32.69408395 94.56861893 -32.59033203 91.29516602 C-28.84385431 90.54607211 -25.87197845 90.16005124 -22.13720703 91.00219727 C-21.35345703 91.17686523 -20.56970703 91.3515332 -19.76220703 91.53149414 C-18.96298828 91.72163086 -18.16376953 91.91176758 -17.34033203 92.10766602 C-16.52564453 92.28620117 -15.71095703 92.46473633 -14.87158203 92.64868164 C-8.85783673 94.02766132 -8.85783673 94.02766132 -6.59033203 96.29516602 C-6.31456216 98.64063141 -6.14061897 100.99873913 -6.02783203 103.35766602 C-6.20216305 107.64742967 -6.20216305 107.64742967 -4.59033203 111.29516602 C-2.23719648 111.36788343 0.11800465 111.37887469 2.47216797 111.35766602 C3.76251953 111.34864258 5.05287109 111.33961914 6.38232422 111.33032227 C7.38134766 111.3187207 8.38037109 111.30711914 9.40966797 111.29516602 C10.64027218 108.8339576 10.61544027 107.03739736 10.72607422 104.28735352 C10.78891602 102.8081543 10.78891602 102.8081543 10.85302734 101.29907227 C10.89234375 100.2665332 10.93166016 99.23399414 10.97216797 98.17016602 C11.03694336 96.60975586 11.03694336 96.60975586 11.10302734 95.01782227 C11.20929676 92.44374073 11.3113338 89.86956093 11.40966797 87.29516602 C10.87269287 87.20807373 10.33571777 87.12098145 9.7824707 87.03125 C2.18203301 85.66418617 -5.09319736 83.41164237 -12.42456055 81.03662109 C-14.54486992 80.35216603 -16.66982342 79.68372942 -18.79541016 79.01586914 C-20.15313983 78.57997777 -21.51057328 78.14316238 -22.86767578 77.70532227 C-24.69673462 77.11956421 -24.69673462 77.11956421 -26.56274414 76.52197266 C-29.50065365 75.33150453 -30.71121691 74.75341706 -32.59033203 72.29516602 C-32.97128296 69.93818665 -32.97128296 69.93818665 -32.97851562 67.12451172 C-32.98797211 66.06943924 -32.99742859 65.01436676 -33.00717163 63.92732239 C-33.00109894 62.7867186 -32.99502625 61.64611481 -32.98876953 60.47094727 C-32.99163971 59.29557907 -32.99450989 58.12021088 -32.99746704 56.90922546 C-32.99951057 54.41848266 -32.99396065 51.92772392 -32.98144531 49.43701172 C-32.96546813 45.64001072 -32.98124815 41.84408586 -33.00048828 38.04711914 C-32.9985045 35.62589284 -32.99465804 33.20466721 -32.98876953 30.78344727 C-32.99484222 29.65296463 -33.00091492 28.52248199 -33.00717163 27.35774231 C-32.93968593 19.71579556 -31.9563039 14.15082387 -27.90283203 7.54516602 C-20.05682544 -0.08878634 -10.35495552 0.06120541 0 0 Z " fill="#FFFFFF" transform="translate(204.59033203125,0.704833984375)"/>
<path d="M0 0 C2.88452148 -0.36749268 2.88452148 -0.36749268 6.62109375 -0.35644531 C7.64083786 -0.35951187 7.64083786 -0.35951187 8.68118286 -0.36264038 C10.93356014 -0.36565417 13.18520946 -0.34715417 15.4375 -0.328125 C16.99926573 -0.32506824 18.56103419 -0.32319149 20.12280273 -0.32244873 C23.39805512 -0.3178419 26.67306215 -0.30340195 29.94824219 -0.28125 C34.15178443 -0.2529673 38.35513325 -0.24203892 42.5587616 -0.2375679 C45.78432154 -0.23341562 49.00984217 -0.22359975 52.23538208 -0.21169281 C53.78557011 -0.20598544 55.33576194 -0.20122828 56.88595581 -0.19742584 C59.05034051 -0.19056896 61.21457074 -0.17693931 63.37890625 -0.16113281 C65.22850952 -0.15089081 65.22850952 -0.15089081 67.11547852 -0.14044189 C70 0 70 0 72 1 C72.18942222 6.80677066 71.62719782 11.82006085 70.1875 17.4375 C70.02185547 18.15615234 69.85621094 18.87480469 69.68554688 19.61523438 C69.16796875 21.68359375 69.16796875 21.68359375 68 25 C65.26893489 25.91035504 63.70106761 26.12215713 60.89575195 26.11352539 C59.6648156 26.11341209 59.6648156 26.11341209 58.40901184 26.11329651 C57.0870002 26.10555458 57.0870002 26.10555458 55.73828125 26.09765625 C54.83248825 26.0962413 53.92669525 26.09482635 52.99345398 26.09336853 C50.09976909 26.08777001 47.20616151 26.07521781 44.3125 26.0625 C42.35091258 26.05748481 40.38932394 26.05292193 38.42773438 26.04882812 C33.61843582 26.03865187 28.80930447 26.01907613 24 26 C24 35.9 24 45.8 24 56 C26.37058594 55.98839844 28.74117187 55.97679687 31.18359375 55.96484375 C33.47045762 55.95705304 35.75732004 55.95097636 38.04418945 55.94506836 C39.63794614 55.94002843 41.23169819 55.9331965 42.82543945 55.92456055 C45.11150253 55.91248001 47.39750467 55.90676845 49.68359375 55.90234375 C50.40026718 55.89718246 51.11694061 55.89202118 51.85533142 55.88670349 C53.57063672 55.88650737 55.28581266 55.93807993 57 56 C58.68516954 57.68516954 58.13008019 59.78767788 58.1328125 62.09375 C58.13474609 63.63869141 58.13474609 63.63869141 58.13671875 65.21484375 C58.13285156 66.29894531 58.12898437 67.38304688 58.125 68.5 C58.13080078 70.12615234 58.13080078 70.12615234 58.13671875 71.78515625 C58.13542969 72.81511719 58.13414062 73.84507813 58.1328125 74.90625 C58.13168457 75.85822266 58.13055664 76.81019531 58.12939453 77.79101562 C58 80 58 80 57 81 C54.55169574 81.08843793 52.13179401 81.11528752 49.68359375 81.09765625 C48.95253922 81.0962413 48.22148468 81.09482635 47.46827698 81.09336853 C45.12464368 81.08775408 42.78110461 81.07519922 40.4375 81.0625 C38.85221492 81.05748686 37.26692834 81.05292363 35.68164062 81.04882812 C31.78769457 81.03862921 27.89395323 81.01905687 24 81 C24 90.9 24 100.8 24 111 C28.49560547 110.94779297 28.49560547 110.94779297 33.08203125 110.89453125 C35.98119148 110.87114248 38.88034124 110.85292202 41.77954102 110.83520508 C43.79619034 110.82010821 45.81280679 110.79962885 47.8293457 110.77368164 C50.72615671 110.73733789 53.62253406 110.7202828 56.51953125 110.70703125 C57.42274612 110.69154739 58.325961 110.67606354 59.25654602 110.66011047 C60.5175135 110.65977058 60.5175135 110.65977058 61.80395508 110.65942383 C62.91315056 110.64943108 62.91315056 110.64943108 64.04475403 110.63923645 C66.58331587 111.10762794 67.43305956 111.98151233 69 114 C71.21818481 121.18399771 72.45054647 128.49089216 72 136 C68.61986245 137.12671252 66.02868282 137.14072364 62.46484375 137.16113281 C61.80598175 137.16609772 61.14711975 137.17106262 60.46829224 137.17617798 C58.29135084 137.19076963 56.11448223 137.19759527 53.9375 137.203125 C52.42439777 137.20887733 50.91129555 137.21463505 49.39819336 137.22039795 C46.22737285 137.23089828 43.05657763 137.2367478 39.88574219 137.24023438 C35.82010034 137.24572821 31.75479185 137.26977891 27.68925476 137.29820633 C24.56489069 137.3168126 21.44060743 137.32203714 18.31619263 137.32357025 C16.81704885 137.32660004 15.3179066 137.3346396 13.81881714 137.34775543 C11.72400329 137.36478056 9.6300109 137.3629454 7.53515625 137.35644531 C6.342854 137.36009094 5.15055176 137.36373657 3.92211914 137.36749268 C1 137 1 137 -0.65924358 135.80914688 C-2.4843513 133.34644158 -2.37475532 131.73757083 -2.3742218 128.68615723 C-2.38123611 127.58411453 -2.38825043 126.48207184 -2.39547729 125.34663391 C-2.38783356 124.13718613 -2.38018982 122.92773834 -2.37231445 121.68164062 C-2.37596512 120.40830368 -2.37961578 119.13496674 -2.38337708 117.82304382 C-2.39279015 114.32922921 -2.38335736 110.83569454 -2.37004495 107.34190178 C-2.35873692 103.6877729 -2.36283745 100.03365794 -2.36479187 96.3795166 C-2.36567505 90.24271058 -2.35458945 84.10601498 -2.33618164 77.96923828 C-2.3150136 70.87156463 -2.31150398 63.77405276 -2.3177436 56.67635393 C-2.32343597 49.85210055 -2.3177931 43.02790421 -2.30657005 36.20365906 C-2.30192238 33.29781541 -2.30105094 30.39200663 -2.3031559 27.48616028 C-2.30538722 23.43014023 -2.29093816 19.37434732 -2.2746582 15.31835938 C-2.27713562 14.10891159 -2.27961304 12.89946381 -2.28216553 11.65336609 C-2.27508072 10.55132339 -2.26799591 9.4492807 -2.26069641 8.31384277 C-2.25864354 7.35446556 -2.25659067 6.39508835 -2.25447559 5.4066391 C-2 3 -2 3 0 0 Z " fill="#FFFFFF" transform="translate(500,1)"/>
<path d="M0 0 C1.31799088 -0.00315216 2.63598175 -0.00630432 3.99391174 -0.009552 C5.43856845 -0.00776235 6.88322486 -0.00571143 8.32788086 -0.00341797 C9.80236324 -0.00409124 11.27684551 -0.00506146 12.75132751 -0.00631714 C15.84236711 -0.00779255 18.93337782 -0.00564428 22.02441406 -0.00097656 C25.99487381 0.00472563 29.96526603 0.00143764 33.9357233 -0.00454903 C36.98022474 -0.00815461 40.02471005 -0.00701615 43.06921196 -0.00442123 C44.53370611 -0.00375222 45.99820171 -0.00457952 47.46269417 -0.00690079 C49.50507709 -0.00942777 51.54746513 -0.00489635 53.58984375 0 C54.75407364 0.00079559 55.91830353 0.00159119 57.11781311 0.00241089 C59.73022461 0.12939453 59.73022461 0.12939453 60.73022461 1.12939453 C61.00979869 4.9345672 60.96200741 8.752668 60.98022461 12.56689453 C61.00084961 13.64261719 61.02147461 14.71833984 61.04272461 15.82666016 C61.05045898 17.36676758 61.05045898 17.36676758 61.05834961 18.93798828 C61.06769531 19.88472412 61.07704102 20.83145996 61.08666992 21.80688477 C60.91022949 22.9565271 60.91022949 22.9565271 60.73022461 24.12939453 C57.6625127 26.1745358 57.07454413 26.37766727 53.62597656 26.35644531 C52.80535233 26.35629425 51.98472809 26.35614319 51.13923645 26.35598755 C49.81722481 26.34050369 49.81722481 26.34050369 48.46850586 26.32470703 C47.56271286 26.32187714 46.65691986 26.31904724 45.72367859 26.31613159 C42.82989303 26.30493417 39.93641667 26.27983042 37.04272461 26.25439453 C35.08114054 26.24436416 33.11955161 26.23523841 31.15795898 26.22705078 C26.34849915 26.20669759 21.5397081 26.16754821 16.73022461 26.12939453 C16.73022461 36.02939453 16.73022461 45.92939453 16.73022461 56.12939453 C19.08920898 56.09458984 21.44819336 56.05978516 23.87866211 56.02392578 C26.15892323 56.00054147 28.43917109 55.98231856 30.71948242 55.96459961 C32.30645712 55.94949639 33.89338998 55.92901231 35.48022461 55.90307617 C37.75897534 55.86675858 40.03717519 55.8496843 42.31616211 55.83642578 C43.02767426 55.82094193 43.7391864 55.80545807 44.47225952 55.789505 C46.47387695 55.78881836 46.47387695 55.78881836 49.73022461 56.12939453 C51.79958038 59.23342818 51.9854037 59.94839472 51.99584961 63.47314453 C51.9997168 64.72417969 51.9997168 64.72417969 52.00366211 66.00048828 C51.99592773 66.86802734 51.98819336 67.73556641 51.98022461 68.62939453 C51.99182617 69.93070313 51.99182617 69.93070313 52.00366211 71.25830078 C52.00108398 72.09232422 51.99850586 72.92634766 51.99584961 73.78564453 C51.99359375 74.54683594 51.99133789 75.30802734 51.98901367 76.09228516 C51.73022461 78.12939453 51.73022461 78.12939453 49.73022461 81.12939453 C47.17626974 81.39650857 44.86748087 81.47788483 42.31616211 81.42236328 C41.22170273 81.41599602 41.22170273 81.41599602 40.10513306 81.40950012 C37.77145702 81.39268806 35.43864021 81.35503321 33.10522461 81.31689453 C31.5245079 81.30185087 29.94377768 81.28816191 28.36303711 81.27587891 C24.4848345 81.24532584 20.60849278 81.18661488 16.73022461 81.12939453 C16.73022461 91.02939453 16.73022461 100.92939453 16.73022461 111.12939453 C19.72729492 111.08298828 22.72436523 111.03658203 25.81225586 110.98876953 C28.71140855 110.95758459 31.61054264 110.93329074 34.50976562 110.90966797 C36.5264521 110.88953844 38.54308012 110.86223216 40.55957031 110.82763672 C43.45644543 110.77917731 46.35254975 110.75643954 49.24975586 110.73876953 C50.15297073 110.71812439 51.05618561 110.69747925 51.98677063 110.6762085 C58.22194326 110.6739676 58.22194326 110.6739676 60.76342773 112.95117188 C62.08244205 115.9229511 62.77022874 118.81830374 63.41772461 122.00439453 C63.6690918 123.19806641 63.92045898 124.39173828 64.17944336 125.62158203 C64.69645327 128.91431184 65.06395483 131.81143896 64.73022461 135.12939453 C61.11973101 137.53639026 59.47362892 137.38246693 55.17919922 137.38818359 C54.18849678 137.39344055 54.18849678 137.39344055 53.17778015 137.39880371 C50.9959358 137.40760224 48.81441597 137.40177937 46.63256836 137.39501953 C45.11706988 137.39636656 43.60157183 137.39830742 42.08607483 137.40081787 C38.91101972 137.40376644 35.73607718 137.39947951 32.56103516 137.39013672 C28.48638183 137.37873254 24.41199169 137.38530932 20.33734798 137.39728165 C17.20872504 137.40449919 14.08016479 137.40221299 10.95153999 137.39702606 C9.44879691 137.39568977 7.94604818 137.39733657 6.44331169 137.40198517 C4.34600554 137.40704983 2.24912948 137.39934195 0.15185547 137.38818359 C-1.04266739 137.38659241 -2.23719025 137.38500122 -3.46791077 137.38336182 C-6.26977539 137.12939453 -6.26977539 137.12939453 -8.26977539 135.12939453 C-8.51587105 132.79057121 -8.51587105 132.79057121 -8.51028442 129.80172729 C-8.51303375 128.67148132 -8.51578308 127.54123535 -8.51861572 126.3767395 C-8.51142517 125.13093109 -8.50423462 123.88512268 -8.49682617 122.6015625 C-8.49711823 121.29429199 -8.49741028 119.98702148 -8.49771118 118.64013672 C-8.49828641 115.04940596 -8.48650479 111.45880808 -8.47256327 107.86810827 C-8.46008408 104.11781832 -8.45888763 100.36752553 -8.45651245 96.61721802 C-8.45028939 89.51281212 -8.43386745 82.40846756 -8.41381347 75.30408871 C-8.39148012 67.21714315 -8.3804675 59.13019471 -8.3704226 51.043226 C-8.3495019 34.40524623 -8.31430994 17.7673282 -8.26977539 1.12939453 C-5.46334877 -0.27381878 -3.13910623 0.00214369 0 0 Z " fill="#FFFFFF" transform="translate(97.269775390625,0.87060546875)"/>
<path d="M0 0 C0.91974609 -0.01224609 1.83949219 -0.02449219 2.78710938 -0.03710938 C3.67076172 -0.03904297 4.55441406 -0.04097656 5.46484375 -0.04296875 C6.27429443 -0.04707764 7.08374512 -0.05118652 7.91772461 -0.05541992 C10.0625 0.1875 10.0625 0.1875 13.0625 2.1875 C13.76982117 4.14953613 13.76982117 4.14953613 14.24487305 6.59570312 C14.43080521 7.51975952 14.61673737 8.44381592 14.80830383 9.39587402 C14.99918076 10.4099231 15.19005768 11.42397217 15.38671875 12.46875 C15.59681076 13.53017212 15.80690277 14.59159424 16.02336121 15.68518066 C16.47685121 17.98355919 16.92471038 20.28305423 17.36761475 22.58349609 C18.0639461 26.19500017 18.77682514 29.80286296 19.49462891 33.41015625 C20.96940978 40.83309048 22.42332621 48.26001806 23.875 55.6875 C24.38203059 58.2760673 24.88919139 60.86460911 25.39648438 63.453125 C26.61998397 69.69762483 27.84190224 75.94243234 29.0625 82.1875 C29.25628738 81.20444382 29.45007477 80.22138763 29.6497345 79.20854187 C31.47628989 69.95060616 33.31493523 60.69514376 35.16548634 51.44197369 C36.1165152 46.68458809 37.06324373 41.92642993 38.00024414 37.16625977 C38.90442842 32.57363068 39.8197776 27.98335756 40.74295616 23.39451027 C41.09342848 21.64220453 41.43985006 19.88908365 41.78217506 18.13516808 C42.26185258 15.68118256 42.75577082 13.23047411 43.25317383 10.7800293 C43.46141281 9.68814552 43.46141281 9.68814552 43.67385864 8.57420349 C44.97347577 2.3094405 44.97347577 2.3094405 48.0625 0.1875 C50.29907227 -0.18481445 50.29907227 -0.18481445 52.87890625 -0.17578125 C53.80767578 -0.17513672 54.73644531 -0.17449219 55.69335938 -0.17382812 C56.66080078 -0.15771484 57.62824219 -0.14160156 58.625 -0.125 C59.59630859 -0.12822266 60.56761719 -0.13144531 61.56835938 -0.13476562 C68.79547991 -0.07952009 68.79547991 -0.07952009 71.0625 2.1875 C71.31154744 9.6099643 69.12092084 17.27754159 67.53393555 24.47436523 C67.14833466 26.25423073 67.14833466 26.25423073 66.75494385 28.0700531 C66.05481189 31.29372803 65.34950334 34.51620573 64.64074683 37.73799396 C64.19755842 39.75364506 63.75579039 41.76960243 63.31446266 43.7856617 C61.77306514 50.82556248 60.22483763 57.86392666 58.67114258 64.90112305 C57.2246998 71.45355267 55.79468477 78.00942774 54.37184495 84.56701893 C53.14649533 90.21047845 51.90896739 95.85117908 50.66207343 101.48991734 C49.9188019 104.85236148 49.18068039 108.21573996 48.45514488 111.58205986 C47.64746207 115.32747972 46.81456727 119.06703779 45.97924805 122.80639648 C45.74273026 123.92069031 45.50621246 125.03498413 45.26252747 126.18304443 C45.03129181 127.19924362 44.80005615 128.21544281 44.56181335 129.26243591 C44.36769206 130.1463523 44.17357077 131.03026869 43.97356701 131.94097042 C42.84918329 134.71350115 41.60934734 135.67484084 39.0625 137.1875 C36.82006836 137.55981445 36.82006836 137.55981445 34.40234375 137.55078125 C33.52642578 137.55013672 32.65050781 137.54949219 31.74804688 137.54882812 C30.38776367 137.5246582 30.38776367 137.5246582 29 137.5 C28.08927734 137.50322266 27.17855469 137.50644531 26.24023438 137.50976562 C19.46349893 137.45483262 19.46349893 137.45483262 16.0625 135.1875 C15.26184082 133.01686096 15.26184082 133.01686096 14.64257812 130.22485352 C14.39600464 129.14251938 14.14943115 128.06018524 13.89538574 126.9450531 C13.63084595 125.72697464 13.36630615 124.50889618 13.09375 123.25390625 C12.79867175 121.93729763 12.50244581 120.62094582 12.2052002 119.30482483 C11.53027275 116.30709106 10.86288804 113.30778775 10.19970703 110.30743408 C8.95940697 104.70668489 7.68897207 99.11289081 6.41796875 93.51904297 C4.20509173 83.77038137 2.01170877 74.01748371 -0.1688385 64.26154137 C-1.43940515 58.57773157 -2.7140095 52.89489468 -3.99804688 47.21411133 C-5.25987622 41.631284 -6.51193968 36.04635216 -7.75694275 30.45974922 C-8.22877404 28.3502477 -8.70404649 26.2415127 -9.18287659 24.13358879 C-9.84551405 21.21338259 -10.49555389 18.29064242 -11.14257812 15.36694336 C-11.34089233 14.50632797 -11.53920654 13.64571259 -11.74353027 12.75901794 C-13.40364661 5.14289722 -13.40364661 5.14289722 -11.9375 1.1875 C-8.29852049 -0.63198976 -4.00590712 0.00279547 0 0 Z " fill="#FFFFFF" transform="translate(413.9375,0.8125)"/>
<path d="M0 0 C1.02351563 0.00322266 2.04703125 0.00644531 3.1015625 0.00976562 C4.12507813 -0.00634766 5.14859375 -0.02246094 6.203125 -0.0390625 C7.18023437 -0.03970703 8.15734375 -0.04035156 9.1640625 -0.04101562 C10.06253906 -0.04399658 10.96101563 -0.04697754 11.88671875 -0.05004883 C12.98306641 0.13424683 12.98306641 0.13424683 14.1015625 0.32226562 C16.2040094 3.47593598 16.35041804 4.18995433 16.34207153 7.78312683 C16.34482086 8.69597946 16.34757019 9.60883209 16.35040283 10.54934692 C16.34321228 11.54844086 16.33602173 12.54753479 16.32861328 13.5769043 C16.32890533 14.630728 16.32919739 15.6845517 16.32949829 16.77030945 C16.32810278 20.26036762 16.31253097 23.75021341 16.296875 27.24023438 C16.29314566 29.65733219 16.29029832 32.07443151 16.28829956 34.49153137 C16.28065688 40.85871542 16.26100287 47.22580849 16.2388916 53.59295654 C16.21844688 60.08800017 16.20930078 66.58305848 16.19921875 73.078125 C16.17775764 85.82621073 16.14399748 98.57423334 16.1015625 111.32226562 C17.17639893 111.29608154 18.25123535 111.26989746 19.35864258 111.24291992 C23.34475911 111.15245018 27.33078492 111.09502918 31.31762695 111.04760742 C33.04336809 111.02245558 34.76900262 110.98832943 36.49438477 110.94506836 C38.97438831 110.8844413 41.45298472 110.85606462 43.93359375 110.83398438 C45.09155205 110.79527473 45.09155205 110.79527473 46.27290344 110.75578308 C48.45629883 110.75463867 48.45629883 110.75463867 52.1015625 111.32226562 C55.24074813 115.03635911 55.92718466 119.10605217 56.8515625 123.82226562 C57.24601562 125.75585938 57.24601562 125.75585938 57.6484375 127.72851562 C58.0637461 131.02234246 58.15156296 133.1955976 57.1015625 136.32226562 C54.36685189 137.68962093 52.18416334 137.45700508 49.12304688 137.4675293 C47.86834595 137.47390915 46.61364502 137.480289 45.32092285 137.48686218 C43.94571979 137.48839063 42.57051622 137.48950471 41.1953125 137.49023438 C39.7904863 137.49344629 38.38566045 137.49681032 36.98083496 137.50032043 C34.03522974 137.50631198 31.08965386 137.50816026 28.14404297 137.50756836 C24.36419834 137.50746662 20.58454107 137.5211305 16.80474091 137.53834057 C13.90345388 137.54944148 11.00221247 137.55148818 8.10090637 137.55095863 C6.70700941 137.55214119 5.31311136 137.55657833 3.91923523 137.564291 C1.97287399 137.57405386 0.026458 137.56995823 -1.91992188 137.56518555 C-3.58299377 137.56732307 -3.58299377 137.56732307 -5.27966309 137.56950378 C-7.8984375 137.32226562 -7.8984375 137.32226562 -9.8984375 135.32226562 C-10.15011978 133.0046463 -10.15011978 133.0046463 -10.15240479 130.04602051 C-10.15804443 128.92707901 -10.16368408 127.80813751 -10.16949463 126.6552887 C-10.16544617 125.42197311 -10.16139771 124.18865753 -10.15722656 122.91796875 C-10.1607312 121.6236644 -10.16423584 120.32936005 -10.16784668 118.99583435 C-10.17698378 115.44010888 -10.17342104 111.88449915 -10.16708851 108.32877159 C-10.16203532 104.6127732 -10.16671806 100.8967849 -10.16986084 97.18078613 C-10.17350248 90.93967911 -10.16869622 84.69861938 -10.15917969 78.45751953 C-10.14829474 71.23545368 -10.15182018 64.01350074 -10.1628325 56.79143763 C-10.17189976 50.59777689 -10.17319341 44.40415021 -10.16795516 38.21048498 C-10.16483236 34.5081888 -10.16443458 30.80594575 -10.17102814 27.10365295 C-10.17786223 22.97788778 -10.16839803 18.85231817 -10.15722656 14.7265625 C-10.16127502 13.49324692 -10.16532349 12.25993134 -10.16949463 10.98924255 C-10.16385498 9.87030106 -10.15821533 8.75135956 -10.15240479 7.59851074 C-10.15127371 6.13399097 -10.15127371 6.13399097 -10.15011978 4.63988495 C-9.52260515 -1.13859108 -4.55868175 0.03307751 0 0 Z " fill="#FFFFFF" transform="translate(354.8984375,0.677734375)"/>
<path d="M0 0 C0.93972656 -0.00128906 1.87945313 -0.00257812 2.84765625 -0.00390625 C3.83636719 -0.00003906 4.82507813 0.00382812 5.84375 0.0078125 C7.32681641 0.00201172 7.32681641 0.00201172 8.83984375 -0.00390625 C10.24943359 -0.00197266 10.24943359 -0.00197266 11.6875 0 C12.55568359 0.00112793 13.42386719 0.00225586 14.31835938 0.00341797 C16.34375 0.1328125 16.34375 0.1328125 17.34375 1.1328125 C17.44274523 2.68236809 17.47454524 4.23634923 17.4765625 5.7890625 C17.47785156 6.72878906 17.47914063 7.66851562 17.48046875 8.63671875 C17.47660156 9.62542969 17.47273437 10.61414063 17.46875 11.6328125 C17.47261719 12.62152344 17.47648438 13.61023438 17.48046875 14.62890625 C17.47853516 16.03849609 17.47853516 16.03849609 17.4765625 17.4765625 C17.47543457 18.34474609 17.47430664 19.21292969 17.47314453 20.10742188 C17.34375 22.1328125 17.34375 22.1328125 16.34375 23.1328125 C14.79419441 23.23180773 13.24021327 23.26360774 11.6875 23.265625 C10.27791016 23.26755859 10.27791016 23.26755859 8.83984375 23.26953125 C7.85113281 23.26566406 6.86242187 23.26179688 5.84375 23.2578125 C4.85503906 23.26167969 3.86632812 23.26554687 2.84765625 23.26953125 C1.90792969 23.26824219 0.96820312 23.26695313 0 23.265625 C-0.86818359 23.26449707 -1.73636719 23.26336914 -2.63085938 23.26220703 C-4.65625 23.1328125 -4.65625 23.1328125 -5.65625 22.1328125 C-5.65625 19.8228125 -5.65625 17.5128125 -5.65625 15.1328125 C-42.28625 15.1328125 -78.91625 15.1328125 -116.65625 15.1328125 C-116.98625 13.4828125 -117.31625 11.8328125 -117.65625 10.1328125 C-115.65625 8.1328125 -115.65625 8.1328125 -113.69224358 7.88671684 C-112.47824222 7.88948222 -112.47824222 7.88948222 -111.23971558 7.89230347 C-110.3114093 7.88955414 -109.38310303 7.88680481 -108.42666626 7.88397217 C-106.89458023 7.894758 -106.89458023 7.894758 -105.33154297 7.90576172 C-103.72176575 7.90532364 -103.72176575 7.90532364 -102.07946777 7.90487671 C-98.51904315 7.90627419 -94.95882573 7.92185513 -91.3984375 7.9375 C-88.93506993 7.94122864 -86.47170088 7.94407631 -84.0083313 7.94607544 C-77.51454599 7.95372361 -71.02084968 7.97338227 -64.52709961 7.9954834 C-57.90479741 8.01591636 -51.28248087 8.02507169 -44.66015625 8.03515625 C-31.65881612 8.05662703 -18.65753779 8.09039453 -5.65625 8.1328125 C-5.676875 6.9984375 -5.6975 5.8640625 -5.71875 4.6953125 C-5.62758112 -0.5013138 -4.71925727 0.00613118 0 0 Z " fill="#0EC0C0" transform="translate(696.65625,56.8671875)"/>
<path d="M0 0 C1.06878891 -0.03542908 2.13757782 -0.07085815 3.23875427 -0.10736084 C8.16585326 -0.23131195 13.09283616 -0.32203777 18.02099609 -0.39160156 C20.61392652 -0.43819568 23.20656627 -0.50629754 25.79833984 -0.59667969 C48.52443142 -1.37577691 48.52443142 -1.37577691 53.98120117 2.71972656 C56.59141415 5.24960779 58.45480415 7.98251613 59.99633789 11.28808594 C59.99633789 11.94808594 59.99633789 12.60808594 59.99633789 13.28808594 C63.62633789 13.28808594 67.25633789 13.28808594 70.99633789 13.28808594 C70.99633789 10.64808594 70.99633789 8.00808594 70.99633789 5.28808594 C74.5323775 3.52006614 78.60205044 4.10343681 82.49633789 4.10058594 C83.37676758 4.08833984 84.25719727 4.07609375 85.16430664 4.06347656 C86.00606445 4.06154297 86.84782227 4.05960937 87.71508789 4.05761719 C88.87427734 4.05145386 88.87427734 4.05145386 90.05688477 4.04516602 C91.99633789 4.28808594 91.99633789 4.28808594 93.99633789 6.28808594 C94.22338867 8.44287109 94.22338867 8.44287109 94.19165039 11.07714844 C94.18520508 12.01816406 94.17875977 12.95917969 94.17211914 13.92871094 C94.14698242 15.40597656 94.14698242 15.40597656 94.12133789 16.91308594 C94.11231445 17.90566406 94.10329102 18.89824219 94.09399414 19.92089844 C94.07037906 22.37686728 94.03744588 24.83235762 93.99633789 27.28808594 C91.67290233 28.44980372 90.30000473 28.41712562 87.71508789 28.42089844 C86.45245117 28.42283203 86.45245117 28.42283203 85.16430664 28.42480469 C84.28387695 28.4209375 83.40344727 28.41707031 82.49633789 28.41308594 C81.6159082 28.41695312 80.73547852 28.42082031 79.82836914 28.42480469 C78.98661133 28.42351562 78.14485352 28.42222656 77.27758789 28.42089844 C76.50479492 28.41977051 75.73200195 28.41864258 74.93579102 28.41748047 C72.99633789 28.28808594 72.99633789 28.28808594 70.99633789 27.28808594 C70.99633789 24.97808594 70.99633789 22.66808594 70.99633789 20.28808594 C69.67569336 20.35769531 69.67569336 20.35769531 68.32836914 20.42871094 C66.58620117 20.48285156 66.58620117 20.48285156 64.80883789 20.53808594 C63.08600586 20.60769531 63.08600586 20.60769531 61.32836914 20.67871094 C57.17777433 20.19212303 55.91955179 19.25325985 52.99633789 16.28808594 C52.62264069 15.64171677 52.24894348 14.9953476 51.86392212 14.32939148 C49.84851841 10.95335275 48.33652293 8.67736708 44.457901 7.55075073 C41.304536 7.28241948 38.23473123 7.25856228 35.07055664 7.32324219 C33.92722366 7.3147374 32.78389069 7.3062326 31.60591125 7.29747009 C27.96417218 7.27794897 24.32539168 7.31284091 20.68383789 7.35058594 C17.02523094 7.35130533 13.3667895 7.3411295 9.70820618 7.32872009 C7.43344959 7.32510839 5.15865188 7.33152035 2.88395691 7.34864807 C1.86231949 7.35452438 0.84068207 7.3604007 -0.21191406 7.36645508 C-1.11537064 7.37504044 -2.01882721 7.38362579 -2.94966125 7.39247131 C-5.00366211 7.28808594 -5.00366211 7.28808594 -6.00366211 6.28808594 C-6.12866211 3.78808594 -6.12866211 3.78808594 -6.00366211 1.28808594 C-4.33595648 -0.37961969 -2.29487148 0.07520359 0 0 Z M77.99633789 11.28808594 C77.99633789 14.58808594 77.99633789 17.88808594 77.99633789 21.28808594 C80.96633789 21.28808594 83.93633789 21.28808594 86.99633789 21.28808594 C86.99633789 17.98808594 86.99633789 14.68808594 86.99633789 11.28808594 C84.02633789 11.28808594 81.05633789 11.28808594 77.99633789 11.28808594 Z " fill="#FFFFFF" transform="translate(595.003662109375,81.7119140625)"/>
<path d="M0 0 C0.93972656 -0.00128906 1.87945313 -0.00257812 2.84765625 -0.00390625 C3.83636719 -0.00003906 4.82507813 0.00382812 5.84375 0.0078125 C7.32681641 0.00201172 7.32681641 0.00201172 8.83984375 -0.00390625 C10.24943359 -0.00197266 10.24943359 -0.00197266 11.6875 0 C12.55568359 0.00112793 13.42386719 0.00225586 14.31835938 0.00341797 C16.34375 0.1328125 16.34375 0.1328125 17.34375 1.1328125 C17.44274523 2.68236809 17.47454524 4.23634923 17.4765625 5.7890625 C17.47785156 6.72878906 17.47914063 7.66851562 17.48046875 8.63671875 C17.47660156 9.62542969 17.47273437 10.61414063 17.46875 11.6328125 C17.47261719 12.62152344 17.47648438 13.61023438 17.48046875 14.62890625 C17.47917969 15.56863281 17.47789062 16.50835937 17.4765625 17.4765625 C17.47543457 18.34474609 17.47430664 19.21292969 17.47314453 20.10742188 C17.34375 22.1328125 17.34375 22.1328125 16.34375 23.1328125 C14.79419441 23.23180773 13.24021327 23.26360774 11.6875 23.265625 C10.27791016 23.26755859 10.27791016 23.26755859 8.83984375 23.26953125 C7.85113281 23.26566406 6.86242187 23.26179688 5.84375 23.2578125 C4.85503906 23.26167969 3.86632812 23.26554687 2.84765625 23.26953125 C1.90792969 23.26824219 0.96820312 23.26695313 0 23.265625 C-0.86818359 23.26449707 -1.73636719 23.26336914 -2.63085938 23.26220703 C-4.65625 23.1328125 -4.65625 23.1328125 -5.65625 22.1328125 C-5.69705783 20.13322886 -5.69879356 18.13235996 -5.65625 16.1328125 C-9.56153536 15.81892975 -12.90170999 15.95861273 -16.65625 17.1328125 C-19.45611864 19.77459049 -21.574071 22.51558657 -23.78125 25.6640625 C-25.65625 28.1328125 -25.65625 28.1328125 -28.65625 29.1328125 C-30.22307453 29.22669797 -31.7936478 29.26351912 -33.36328125 29.265625 C-34.81166382 29.26852539 -34.81166382 29.26852539 -36.28930664 29.27148438 C-37.33852295 29.26697266 -38.38773926 29.26246094 -39.46875 29.2578125 C-40.55212646 29.25587891 -41.63550293 29.25394531 -42.75170898 29.25195312 C-56.39429241 29.1824712 -70.02517205 28.6636551 -83.65625 28.1328125 C-84.03843767 26.47666593 -84.37020102 24.80824226 -84.65625 23.1328125 C-83.65625 22.1328125 -83.65625 22.1328125 -81.59120178 22.05534363 C-80.68204514 22.0759938 -79.77288849 22.09664398 -78.83618164 22.11791992 C-77.80743423 22.136707 -76.77868683 22.15549408 -75.71876526 22.17485046 C-74.59598679 22.19578262 -73.47320831 22.21671478 -72.31640625 22.23828125 C-68.70630266 22.26236092 -65.09624149 22.27584031 -61.48608398 22.28930664 C-58.99039936 22.30984659 -56.49479308 22.3499613 -53.99975586 22.41040039 C-39.63441995 23.58383515 -39.63441995 23.58383515 -27.01953125 18.40771484 C-25.2285202 16.30139769 -23.90771088 14.1892768 -22.4440918 11.81567383 C-20.65625 9.1328125 -20.65625 9.1328125 -18.53051758 8.1472168 C-16.3984375 7.9609375 -16.3984375 7.9609375 -12.53125 8.3828125 C-10.57832031 8.54523437 -10.57832031 8.54523437 -8.5859375 8.7109375 C-7.61914062 8.85015625 -6.65234375 8.989375 -5.65625 9.1328125 C-5.676875 7.8334375 -5.6975 6.5340625 -5.71875 5.1953125 C-5.74024454 3.84115617 -5.72773199 2.48525167 -5.65625 1.1328125 C-4.03424485 -0.48919265 -2.23601969 0.002905 0 0 Z M1.34375 7.1328125 C1.34375 10.1028125 1.34375 13.0728125 1.34375 16.1328125 C4.31375 16.1328125 7.28375 16.1328125 10.34375 16.1328125 C10.34375 13.1628125 10.34375 10.1928125 10.34375 7.1328125 C7.37375 7.1328125 4.40375 7.1328125 1.34375 7.1328125 Z " fill="#FFFFFF" transform="translate(671.65625,27.8671875)"/>
<path d="M0 0 C8.22527411 0.17854147 8.22527411 0.17854147 11.91455078 3.45874023 C13.64501953 5.36889648 13.64501953 5.36889648 15.28955078 7.52124023 C19.76450902 13.64841435 19.76450902 13.64841435 26.31689453 16.98266602 C30.11855451 17.42328302 33.86924532 17.46752743 37.69189453 17.42358398 C41.28955078 17.52124023 41.28955078 17.52124023 43.28955078 19.52124023 C43.54833984 21.55249023 43.54833984 21.55249023 43.55517578 24.02124023 C43.55904297 25.35155273 43.55904297 25.35155273 43.56298828 26.70874023 C43.55525391 27.63686523 43.54751953 28.56499023 43.53955078 29.52124023 C43.55115234 30.91342773 43.55115234 30.91342773 43.56298828 32.33374023 C43.56041016 33.22061523 43.55783203 34.10749023 43.55517578 35.02124023 C43.55291992 35.83592773 43.55066406 36.65061523 43.54833984 37.48999023 C43.28955078 39.52124023 43.28955078 39.52124023 41.28955078 41.52124023 C37.97599318 41.96928739 34.62995215 41.84533885 31.28955078 41.83374023 C30.36142578 41.84985352 29.43330078 41.8659668 28.47705078 41.88256836 C27.59017578 41.88321289 26.70330078 41.88385742 25.78955078 41.88452148 C24.56751953 41.88899292 24.56751953 41.88899292 23.32080078 41.89355469 C22.65048828 41.77069092 21.98017578 41.64782715 21.28955078 41.52124023 C19.09607088 38.23102038 19.26806 37.05999951 19.47290039 33.27734375 C19.69348569 26.4311193 18.50942169 21.72744006 14.02587891 16.44335938 C8.41041563 10.6381227 3.76860758 7.42781452 -4.46044922 7.27124023 C-5.80994021 7.3141936 -7.1591055 7.37047087 -8.50732422 7.44311523 C-9.56435547 7.46889648 -10.62138672 7.49467773 -11.71044922 7.52124023 C-12.37044922 6.86124023 -13.03044922 6.20124023 -13.71044922 5.52124023 C-12.60651608 -1.76471846 -6.04408675 0.04848198 0 0 Z " fill="#0FC0C0" transform="translate(612.71044921875,96.478759765625)"/>
<path d="M0 0 C2.03125 -0.37231445 2.03125 -0.37231445 4.5 -0.36328125 C5.386875 -0.36263672 6.27375 -0.36199219 7.1875 -0.36132812 C8.5796875 -0.3371582 8.5796875 -0.3371582 10 -0.3125 C10.928125 -0.31572266 11.85625 -0.31894531 12.8125 -0.32226562 C19.73305861 -0.26694139 19.73305861 -0.26694139 22 2 C22.25878906 4.03125 22.25878906 4.03125 22.265625 6.5 C22.26949219 7.8303125 22.26949219 7.8303125 22.2734375 9.1875 C22.26570312 10.115625 22.25796875 11.04375 22.25 12 C22.26160156 13.3921875 22.26160156 13.3921875 22.2734375 14.8125 C22.27085937 15.699375 22.26828125 16.58625 22.265625 17.5 C22.26336914 18.3146875 22.26111328 19.129375 22.25878906 19.96875 C22 22 22 22 20 24 C18.19757592 23.92017236 16.39517039 23.83521395 14.59472656 23.71899414 C9.59797304 23.50740702 5.03980583 23.38200284 0.97167969 26.60888672 C-1.0199374 28.69942519 -2.89743637 30.84790285 -4.75 33.0625 C-8.93966356 38.02307022 -11.99341846 41.3624571 -18.671875 42.05859375 C-23.82374704 42.17161864 -28.90750833 41.77248998 -34 41 C-34.625 38.625 -34.625 38.625 -35 36 C-34.34 35.34 -33.68 34.68 -33 34 C-31.14544814 34.02305093 -29.29050883 34.05374162 -27.4375 34.1328125 C-20.66486228 34.29742522 -15.53149205 33.55034522 -10.20751953 29.14526367 C-4.45532511 23.60279324 -1.99178464 18.92212223 -1.8125 10.875 C-1.84791114 9.43452539 -1.89531548 7.99427501 -1.95703125 6.5546875 C-2 3 -2 3 0 0 Z " fill="#0FC0C0" transform="translate(634,0)"/>
<path d="M0 0 C3.63 0 7.26 0 11 0 C11 3.3 11 6.6 11 10 C7.37 10 3.74 10 0 10 C0 6.7 0 3.4 0 0 Z " fill="#E8F9F9" transform="translate(697,64)"/>
<path d="M0 0 C3.3 0 6.6 0 10 0 C10 3.3 10 6.6 10 10 C6.7 10 3.4 10 0 10 C0 6.7 0 3.4 0 0 Z " fill="#FFFFFF" transform="translate(639,121)"/>
<path d="M0 0 C3.3 0 6.6 0 10 0 C10 3.3 10 6.6 10 10 C6.7 10 3.4 10 0 10 C0 6.7 0 3.4 0 0 Z " fill="#FFFFFF" transform="translate(639,7)"/>
<path d="M0 0 C3.96 0 7.92 0 12 0 C12.09765625 6.15234375 12.09765625 6.15234375 12 8 C11 9 11 9 8.93359375 9.09765625 C8.10988281 9.08605469 7.28617188 9.07445312 6.4375 9.0625 C5.61121094 9.05347656 4.78492188 9.04445312 3.93359375 9.03515625 C3.29550781 9.02355469 2.65742187 9.01195312 2 9 C0 2.25 0 2.25 0 0 Z " fill="#FFFFFF" transform="translate(575,129)"/>
</svg>
