<?xml version="1.0" encoding="UTF-8"?>
<svg version="1.1" xmlns="http://www.w3.org/2000/svg" width="1787" height="388">
<path d="M0 0 C1.02153671 -0.0071553 2.04307343 -0.01431061 3.0955658 -0.02168274 C4.22115906 -0.02437164 5.34675232 -0.02706055 6.50645447 -0.02983093 C7.68888229 -0.03640213 8.87131012 -0.04297333 10.08956909 -0.04974365 C14.02271373 -0.06953074 17.95584498 -0.08116201 21.88902283 -0.09111023 C23.24759376 -0.09515947 24.6061645 -0.09927644 25.96473503 -0.10346031 C32.36077852 -0.1225335 38.75681044 -0.13674906 45.15287691 -0.14507228 C52.50102006 -0.15479436 59.84885791 -0.18097149 67.19689375 -0.22157317 C72.89397028 -0.25195337 78.59096057 -0.26656244 84.2881164 -0.26985329 C87.68081256 -0.27218289 91.07318356 -0.28086197 94.4657917 -0.30631447 C115.77051462 -0.44408918 136.77053956 -0.32076196 153.32261658 15.11201477 C164.14898497 27.062307 168.49010533 42.64116252 168.44102478 58.47383118 C168.44613571 59.34691925 168.45124664 60.22000732 168.45651245 61.11955261 C168.47028883 63.97518482 168.46946003 66.83057225 168.46714783 69.68623352 C168.47104271 71.69627469 168.475379 73.70631505 168.48013306 75.71635437 C168.4875707 79.92069673 168.48732288 84.12495509 168.48204041 88.32929993 C168.47626427 93.67475504 168.49314397 99.01986156 168.51638508 104.36525917 C168.53123714 108.51611793 168.53197839 112.66689509 168.52887535 116.81777573 C168.52938332 118.78623008 168.53452064 120.75468966 168.54468727 122.72311783 C168.67715311 151.96647752 168.67715311 151.96647752 161.79136658 164.77217102 C160.94445251 166.40025696 160.94445251 166.40025696 160.08042908 168.06123352 C156.68286777 173.53893441 153.17357325 177.52478042 147.66636658 180.89717102 C146.74855408 181.46951477 145.83074158 182.04185852 144.88511658 182.63154602 C140.71213674 184.95786237 137.99736245 186.14717102 133.16636658 186.14717102 C134.59738656 191.46404342 136.03137964 196.78010639 137.46730042 202.09565735 C138.01752485 204.13313621 138.56730786 206.17073432 139.11665344 208.20845032 C143.07197202 222.87356112 147.09470024 237.51840611 151.17182922 252.15003967 C152.68673613 257.59040226 154.19636375 263.03223333 155.70638657 268.47395325 C157.21530981 273.90866346 158.73347084 279.34069286 160.25781918 284.77109528 C161.22159723 288.21286975 162.17675265 291.65699569 163.1297245 295.10177612 C163.57880062 296.71806839 164.03147703 298.33336527 164.48799706 299.9475708 C165.1192789 302.18149115 165.73761428 304.41863027 166.35313416 306.65693665 C166.70475113 307.91558533 167.0563681 309.17423401 167.41864014 310.47102356 C168.25695232 314.59252983 168.42405475 317.95317142 168.16636658 322.14717102 C166.3558197 324.61616516 166.3558197 324.61616516 163.16636658 326.14717102 C159.48180292 326.69936007 155.85511896 326.68382526 152.13511658 326.64326477 C151.06644348 326.64472 149.99777039 326.64617523 148.89671326 326.64767456 C146.64070404 326.646017 144.38468334 326.63447186 142.12876892 326.61372375 C138.67857251 326.58477344 135.22991344 326.59311789 131.77964783 326.6061554 C129.58562995 326.59991761 127.39161693 326.59152636 125.19761658 326.58076477 C124.16729309 326.58370041 123.1369696 326.58663605 122.07542419 326.58966064 C121.11092346 326.57697647 120.14642273 326.5642923 119.1526947 326.55122375 C118.30839905 326.54582077 117.46410339 326.54041779 116.59422302 326.53485107 C113.40577559 326.02571987 111.6817762 325.19017093 109.16636658 323.14717102 C107.7875824 320.11624146 107.7875824 320.11624146 106.7151947 316.31440735 C106.51293526 315.61371282 106.31067581 314.91301828 106.10228729 314.19109058 C105.43453468 311.84876355 104.79832215 309.49939321 104.16636658 307.14717102 C103.94395294 306.33573513 103.72153931 305.52429924 103.49238586 304.68827438 C101.74090164 298.29534726 100.05913828 291.88495555 98.38511658 285.47138977 C97.84406206 283.40976514 97.30267336 281.3482282 96.76097107 279.28677368 C95.34583831 273.89791685 93.93513564 268.50791038 92.5254364 263.11763 C91.10241488 257.67951407 89.67525414 252.24248491 88.24839783 246.80537415 C86.14651919 238.79449254 84.04691401 230.78302019 81.9495697 222.77095032 C79.36393802 212.89404078 76.76665001 203.0202335 74.16636658 193.14717102 C62.78136658 192.65217102 62.78136658 192.65217102 51.16636658 192.14717102 C51.17302841 193.72713364 51.17969025 195.30709625 51.18655396 196.93493652 C51.24732113 211.81138923 51.29249829 226.68779641 51.32180309 241.56434155 C51.33727018 249.2128517 51.35835661 256.86126918 51.39268494 264.50971985 C51.42259222 271.17632828 51.44194273 277.84286959 51.44863206 284.50954324 C51.4525421 288.03932619 51.46172772 291.56891714 51.48355675 295.09863853 C51.50773105 299.03957587 51.50833571 302.98032558 51.50694275 306.92134094 C51.51772858 308.09090836 51.5285144 309.26047577 51.53962708 310.46548462 C51.53344109 312.07869095 51.53344109 312.07869095 51.52713013 313.7244873 C51.52989551 314.65642001 51.53266088 315.58835272 51.53551006 316.54852581 C51.08507978 319.71940255 50.04369559 321.56948239 48.16636658 324.14717102 C44.96211042 326.28334179 44.0951906 326.40457079 40.40708923 326.43769836 C39.44243744 326.45045807 38.47778564 326.46321777 37.48390198 326.47636414 C36.44325592 326.47858978 35.40260986 326.48081543 34.33042908 326.48310852 C33.25892609 326.48976532 32.1874231 326.49642212 31.08345032 326.50328064 C28.81553363 326.51341089 26.54758712 326.51809755 24.27964783 326.51777649 C20.81169912 326.52214541 17.34502717 326.55845077 13.87730408 326.59638977 C11.67418343 326.60225867 9.47105674 326.60622757 7.26792908 326.60810852 C5.71303268 326.62966507 5.71303268 326.62966507 4.12672424 326.6516571 C-3.07897304 326.6059923 -3.07897304 326.6059923 -6.96498108 324.24336243 C-9.83441374 321.02452928 -9.95951615 319.23898182 -9.96506119 315.01118755 C-9.96890233 313.91650274 -9.97274348 312.82181793 -9.97670102 311.69396085 C-9.97583454 310.48143936 -9.97496806 309.26891788 -9.97407532 308.01965332 C-9.97704644 306.73923686 -9.98001756 305.4588204 -9.98307872 304.13960344 C-9.99116724 300.57367703 -9.99293932 297.00777073 -9.99367619 293.44183624 C-9.99552353 289.6005619 -10.00306926 285.75929807 -10.0098114 281.91802979 C-10.02340846 273.51312331 -10.02942159 265.1082216 -10.03382206 256.70330596 C-10.0365822 251.45785594 -10.04081914 246.21240777 -10.04532623 240.966959 C-10.05752076 226.45144739 -10.06781967 211.93593727 -10.07120132 197.42042065 C-10.07142089 196.49091877 -10.07164046 195.56141689 -10.07186668 194.60374828 C-10.07208495 193.67198811 -10.07230323 192.74022794 -10.07252812 191.78023261 C-10.07297159 189.89204736 -10.07341816 188.00386212 -10.0738678 186.11567688 C-10.07408923 185.1790664 -10.07431066 184.24245591 -10.0745388 183.27746329 C-10.07848766 168.09754198 -10.09594355 152.91766865 -10.11922732 137.73776587 C-10.14292488 122.16271557 -10.15540245 106.58768937 -10.15656924 91.01262075 C-10.15748691 82.26379079 -10.16326224 73.51502333 -10.18138885 64.76621056 C-10.19676834 57.31689641 -10.20192308 49.86766407 -10.19365075 42.41833707 C-10.18973656 38.61621679 -10.1907111 34.81426138 -10.2047081 31.01216125 C-10.21973317 26.89320083 -10.21160334 22.774614 -10.2011261 18.65563965 C-10.2091825 17.44981033 -10.21723891 16.24398101 -10.22553945 15.00161141 C-10.21565468 13.34784933 -10.21565468 13.34784933 -10.20557022 11.66067791 C-10.20616731 10.70980319 -10.2067644 9.75892846 -10.20737958 8.77923936 C-9.75810387 5.61526205 -8.69450892 3.7238755 -6.83363342 1.14717102 C-4.37313134 -0.08308002 -2.75232309 0.01320838 0 0 Z M51.16636658 59.14717102 C51.16636658 83.56717102 51.16636658 107.98717102 51.16636658 133.14717102 C62.33480408 133.23998352 62.33480408 133.23998352 73.72886658 133.33467102 C77.23555969 133.37563904 77.23555969 133.37563904 80.81309509 133.41743469 C82.68214909 133.42620292 84.55120886 133.43384606 86.42027283 133.44013977 C87.85638916 133.46316162 87.85638916 133.46316162 89.32151794 133.48664856 C95.03590106 133.48886889 99.20469437 133.09895027 104.16636658 130.14717102 C106.89659165 126.4612406 107.54871298 123.80629685 107.58628845 119.25874329 C107.60220032 118.09726273 107.61811218 116.93578217 107.63450623 115.73910522 C107.63470764 114.493181 107.63490906 113.24725677 107.63511658 111.96357727 C107.6427301 110.6753154 107.65034363 109.38705353 107.65818787 108.05975342 C107.67160805 105.33709493 107.67321267 102.6147263 107.66734314 99.89204407 C107.66144773 96.41375157 107.6920399 92.93685528 107.73246002 89.45883274 C107.76462086 86.12703751 107.76022069 82.79552711 107.76011658 79.46357727 C107.77651184 78.21967728 107.7929071 76.97577728 107.80979919 75.69418335 C107.89717064 68.56475372 107.89717064 68.56475372 104.8167572 62.37739563 C101.29308451 59.41233022 98.87117323 59.02196155 94.41954041 59.03364563 C92.95828735 59.0338269 92.95828735 59.0338269 91.46751404 59.03401184 C90.44645569 59.03912781 89.42539734 59.04424377 88.37339783 59.04951477 C87.43282532 59.05052185 86.49225281 59.05152893 85.5231781 59.05256653 C82.0083952 59.05780002 78.49362967 59.07176128 74.97886658 59.08467102 C67.12074158 59.10529602 59.26261658 59.12592102 51.16636658 59.14717102 Z " fill="#003057" transform="translate(43.83363342285156,33.85282897949219)"/>
<path d="M0 0 C1.04803802 -0.00744736 1.04803802 -0.00744736 2.11724854 -0.01504517 C4.40955628 -0.02954628 6.7017947 -0.03645082 8.99414062 -0.04199219 C9.78540848 -0.04481956 10.57667633 -0.04764694 11.391922 -0.05056 C15.58485237 -0.06550864 19.77774876 -0.07476365 23.97070312 -0.07910156 C28.25924251 -0.08455978 32.54746018 -0.10854383 36.83589935 -0.13707352 C40.17005255 -0.15588629 43.50413139 -0.16091543 46.83833313 -0.16243744 C48.41687262 -0.16542598 49.99541203 -0.17332237 51.57389832 -0.18662262 C71.51548972 -0.34256997 89.98382687 2.83876916 104.80664062 17.25878906 C116.19784025 29.30880807 119.8075194 44.2042915 119.79083252 60.41261292 C119.79380364 61.3234317 119.79677476 62.23425048 119.79983592 63.17266983 C119.80848272 66.21383683 119.81002777 69.25496428 119.81152344 72.29614258 C119.81615451 74.48132918 119.82117956 76.66651497 119.8265686 78.85169983 C119.83966797 84.78178797 119.84613292 90.71186481 119.85057926 96.64196515 C119.85351436 100.35094621 119.85762003 104.05992422 119.86208344 107.76890373 C119.87653766 120.05223402 119.88587019 132.33555585 119.88994995 144.61889387 C119.8902841 145.61107046 119.8902841 145.61107046 119.890625 146.62329102 C119.89095714 147.61669129 119.89095714 147.61669129 119.891296 148.63016026 C119.89499444 158.68226053 119.90980203 168.73430065 119.93164062 178.78637695 C119.95695937 190.47932568 119.97182018 202.17222712 119.97332644 213.86520427 C119.97437192 220.04717027 119.98022471 226.22904006 119.99814606 232.41098213 C120.01469111 238.23129084 120.01675106 244.05143168 120.00800705 249.8717556 C120.00724008 251.99929887 120.01153417 254.12685141 120.0214653 256.25437164 C120.10802845 275.96617896 118.40301283 294.29937022 104.49804688 309.51660156 C89.15799298 324.35940898 69.39062539 326.3119991 49.11914062 326.36425781 C48.37416824 326.36708519 47.62919586 326.36991257 46.86164856 326.37282562 C42.91394709 326.38775752 38.96628156 326.3970231 35.01855469 326.40136719 C30.98908509 326.40682307 26.95995829 326.43080694 22.9305954 326.45933914 C19.79027421 326.47818511 16.65003171 326.48318276 13.50965881 326.48470306 C12.02684164 326.48768422 10.54402426 326.4955539 9.06126404 326.50888824 C-9.44754052 326.66337239 -27.31959871 323.81230387 -42.34960938 312.16113281 C-42.95289063 311.70738281 -43.55617188 311.25363281 -44.17773438 310.78613281 C-48.44567356 307.09494217 -51.01556651 302.59889265 -53.59960938 297.66113281 C-53.92904541 297.05156738 -54.25848145 296.44200195 -54.59790039 295.81396484 C-61.30404613 282.23020455 -60.78448795 266.95502292 -60.73779297 252.2097168 C-60.74186612 250.03320046 -60.74721214 247.85668619 -60.75372314 245.68017578 C-60.76731331 239.81042422 -60.76213278 233.94083215 -60.75258589 228.07107806 C-60.74494702 221.90505237 -60.75204649 215.73903958 -60.75674438 209.57301331 C-60.76218927 199.22288583 -60.75504322 188.87282276 -60.74072266 178.52270508 C-60.72439433 166.58417968 -60.72969119 154.64580799 -60.74620187 142.7072863 C-60.75984775 132.42573279 -60.76172138 122.14422536 -60.75388587 111.86266571 C-60.74922695 105.7356067 -60.74853535 99.60861976 -60.75849533 93.48156548 C-60.76720812 87.72022485 -60.76106468 81.95908106 -60.74381256 76.19776154 C-60.73987085 74.09279519 -60.74094166 71.98781206 -60.74760056 69.88285255 C-60.80611533 49.49450455 -58.98274519 31.40163093 -44.31835938 16.03222656 C-32.25357741 4.51385682 -16.3772768 0.0891871 0 0 Z M5.83789062 63.66113281 C3.01340386 67.22890556 3.50481962 71.39715866 3.50994873 75.7013855 C3.50697761 76.47629589 3.50400649 77.25120629 3.50094533 78.04959881 C3.49225199 80.65433324 3.49074955 83.25902174 3.48925781 85.86376953 C3.48463013 87.72799783 3.47960554 89.59222518 3.47421265 91.45645142 C3.46108288 96.52669536 3.45464271 101.59692606 3.45020199 106.66718435 C3.44727254 109.83334246 3.44316801 112.99949694 3.43869781 116.16565323 C3.42502214 126.06749577 3.4153555 135.96933003 3.41149592 145.87118137 C3.4070131 157.30973589 3.38945509 168.74817104 3.36049533 180.18668926 C3.33889786 189.0232753 3.3287927 197.8598277 3.32745481 206.69643986 C3.3264055 211.97665754 3.32047098 217.25676302 3.30263519 222.53695297 C3.28618768 227.5027619 3.28398284 232.46837387 3.2927742 237.43420029 C3.29354632 239.25752285 3.28917885 241.08085586 3.27931595 242.90415192 C3.26664675 245.39197494 3.27244556 247.87909507 3.28289795 250.36691284 C3.27484154 251.08958245 3.26678514 251.81225206 3.2584846 252.55682075 C3.30158012 256.93808627 4.00415341 259.65562133 6.65039062 263.16113281 C11.18465351 267.12861283 15.36069282 267.32945596 21.16992188 267.36425781 C21.90611252 267.36995789 22.64230316 267.37565796 23.40080261 267.38153076 C24.95834928 267.39097038 26.51591583 267.39751062 28.07348633 267.40136719 C30.44388149 267.41105512 32.81340265 267.44207957 35.18359375 267.47363281 C36.69986467 267.48016522 38.21614176 267.48541476 39.73242188 267.48925781 C40.78741631 267.50777802 40.78741631 267.50777802 41.86372375 267.52667236 C46.53299661 267.50577527 49.67424927 266.59167666 53.65039062 264.16113281 C57.96402249 259.55000909 57.79824168 254.71387303 57.79083252 248.66593933 C57.79380364 247.90791985 57.79677476 247.14990038 57.79983592 246.36891061 C57.80851209 243.82722806 57.81003025 241.28559267 57.81152344 238.74389648 C57.81615235 236.92217407 57.82117711 235.10045262 57.8265686 233.2787323 C57.83968695 228.32824418 57.84613639 223.37776962 57.85057926 218.42726684 C57.85351071 215.33428944 57.85761564 212.24131575 57.86208344 209.14834023 C57.87575646 199.47075009 57.88542425 189.79316842 57.88928533 180.11556929 C57.89376668 168.94475597 57.91131903 157.77406496 57.94028592 146.60328883 C57.96190095 137.96792353 57.9719895 129.33259266 57.97332644 120.6972006 C57.97437454 115.53989383 57.98028337 110.38270209 57.99814606 105.22542381 C58.01462375 100.37368189 58.01678368 95.52214148 58.00800705 90.67038155 C58.00723653 88.89143713 58.01158131 87.11248189 58.0214653 85.33356476 C58.03418538 82.90122948 58.02830798 80.4696079 58.0178833 78.03727722 C58.02593971 77.33667921 58.03399611 76.63608119 58.04229665 75.91425294 C57.99220739 70.90230399 56.89950603 67.54826494 54.65039062 63.16113281 C50.28428097 59.06790502 45.85359394 58.99229149 40.13085938 58.95800781 C39.39466873 58.95230774 38.65847809 58.94660767 37.89997864 58.94073486 C36.34243197 58.93129525 34.78486542 58.924755 33.22729492 58.92089844 C30.85689976 58.9112105 28.4873786 58.88018606 26.1171875 58.84863281 C24.60091658 58.8421004 23.08463949 58.83685086 21.56835938 58.83300781 C20.86502975 58.82066101 20.16170013 58.80831421 19.4370575 58.79559326 C13.97278114 58.82004835 10.04797631 60.17692397 5.83789062 63.66113281 Z " fill="#003057" transform="translate(705.349609375,33.8388671875)"/>
<path d="M0 0 C1.31577026 -0.00960754 2.63154053 -0.01921509 3.98718262 -0.02911377 C5.41397933 -0.03396514 6.84077809 -0.03824313 8.26757812 -0.04199219 C9.35843468 -0.04623325 9.35843468 -0.04623325 10.47132874 -0.05056 C14.32594154 -0.0655156 18.18051732 -0.07476585 22.03515625 -0.07910156 C25.97744559 -0.08455676 29.91938442 -0.10853212 33.86156464 -0.13707352 C36.92631956 -0.15589169 39.99099363 -0.16091573 43.05580139 -0.16243744 C44.50677896 -0.16542546 45.95775648 -0.17332002 47.40867615 -0.18662262 C59.99845099 -0.29373933 72.38524429 0.86004131 83.67382812 6.84863281 C84.34663818 7.19893555 85.01944824 7.54923828 85.71264648 7.91015625 C96.52079087 13.76997777 103.35762195 22.87799282 107.47129822 34.46308899 C110.23796184 44.24700413 110.90621092 53.32005906 110.86523438 63.45410156 C110.87048526 65.05976213 110.87676702 66.66541961 110.88401794 68.27107239 C110.89432271 71.60151932 110.88999488 74.93153611 110.87524414 78.26196289 C110.85789639 82.52704534 110.88179672 86.79080051 110.91673374 91.05573559 C110.93866616 94.35605259 110.93727944 97.65604813 110.92896843 100.95641518 C110.92814995 102.53008818 110.9349937 104.10378501 110.94973946 105.67738914 C110.96715045 107.86707154 110.95268709 110.05431285 110.92993164 112.24389648 C110.92896988 113.48660812 110.92800812 114.72931976 110.92701721 116.00968933 C110.29882812 119.16113281 110.29882812 119.16113281 107.8966217 121.57447815 C105.0188364 123.33214339 104.01063179 123.58690283 100.72851562 123.14550781 C99.7678418 123.01724609 98.80716797 122.88898438 97.81738281 122.75683594 C90.88381969 121.58296042 83.97458087 120.33387752 77.08105469 118.94238281 C74.41203681 118.40877542 71.73869602 117.90218587 69.06445312 117.39550781 C67.35318448 117.05341015 65.64223395 116.70971642 63.93164062 116.36425781 C63.13887726 116.21821106 62.34611389 116.07216431 61.52932739 115.92169189 C56.47910098 114.86029023 53.33576407 113.60595426 50.29882812 109.16113281 C49.63012006 106.14951047 49.64766282 103.24383227 49.69726562 100.16894531 C49.68925934 99.30477997 49.68125305 98.44061462 49.67300415 97.55026245 C49.64997561 94.79507296 49.6593751 92.04136131 49.67382812 89.28613281 C49.67768673 86.53832164 49.67413388 83.79116515 49.65322876 81.04342651 C49.64122542 79.33718719 49.64366624 77.63076383 49.66293335 75.92459106 C49.63812737 70.60360509 48.94636318 66.82590864 46.29882812 62.16113281 C41.89793092 58.64875627 35.21779877 59.82788212 29.8815918 59.84545898 C27.87102973 59.84861757 25.86194273 59.82514665 23.8515625 59.79980469 C21.94020508 59.79883789 21.94020508 59.79883789 19.99023438 59.79785156 C18.82693604 59.79487061 17.6636377 59.79188965 16.46508789 59.78881836 C12.89971614 60.20806363 11.08102952 60.90465329 8.29882812 63.16113281 C6.3394218 67.0329854 6.03095239 70.29663279 5.97998047 74.60375977 C5.96011078 75.88471024 5.94024109 77.16566071 5.91976929 78.48542786 C5.90789469 79.87342151 5.89623172 81.26141698 5.88476562 82.64941406 C5.86604408 84.07717496 5.84646993 85.50492491 5.82608032 86.93266296 C5.77485712 90.67918428 5.73517919 94.42574142 5.69793701 98.17242432 C5.65783559 102.00013014 5.60677133 105.82768816 5.55664062 109.65527344 C5.45999764 117.15712499 5.375556 124.65904833 5.29882812 132.16113281 C5.9913266 132.32344894 6.68382507 132.48576508 7.39730835 132.65299988 C15.81147716 134.68426143 24.03840058 137.1943839 32.27539062 139.83691406 C33.69476171 140.2893697 35.11422795 140.74152691 36.53378296 141.19340515 C39.49444274 142.13667962 42.45431995 143.08235481 45.41357422 144.0300293 C49.15064985 145.22676739 52.88906704 146.41924363 56.62798023 147.61022663 C63.69238425 149.86056625 70.75354819 152.12067321 77.81014729 154.39537525 C81.60934316 155.61969304 85.41214379 156.83194485 89.2175293 158.03686523 C90.83466557 158.55685487 92.45162951 159.07738098 94.06835938 159.59863281 C94.75656769 159.81292435 95.444776 160.02721588 96.15383911 160.2480011 C101.50426611 161.99585919 105.88474546 164.62731885 109.29882812 169.16113281 C110.23408586 171.96690602 110.42827939 173.67716108 110.43927002 176.57920837 C110.44498016 177.48313324 110.45069031 178.38705811 110.45657349 179.31837463 C110.45825027 180.80276283 110.45825027 180.80276283 110.45996094 182.31713867 C110.46492584 183.36144043 110.46989075 184.40574219 110.4750061 185.48168945 C110.48964273 188.94645849 110.49643441 192.41118165 110.50195312 195.87597656 C110.50770603 198.28674826 110.51346375 200.69751995 110.51922607 203.10829163 C110.52974217 208.17156182 110.53557997 213.23481612 110.5390625 218.2980957 C110.54452988 224.76398574 110.56851783 231.22966335 110.59703445 237.69548702 C110.61573105 242.68085832 110.6208703 247.66617934 110.62239838 252.65158272 C110.62541268 255.03363766 110.63339958 257.41569197 110.64658356 259.79771233 C110.66378075 263.14549354 110.66172976 266.49276781 110.65527344 269.84057617 C110.66448822 270.81195023 110.673703 271.78332428 110.68319702 272.78413391 C110.59479967 287.53466245 105.91231275 300.13503412 95.74804688 310.83691406 C81.43472911 324.41972757 64.46064992 326.47512214 45.43554688 326.46191406 C44.03131487 326.46581652 42.62708402 326.47015428 41.22285461 326.47489929 C38.29737502 326.482303 35.37201621 326.48211358 32.4465332 326.47680664 C28.74212576 326.47102453 25.03822036 326.48794102 21.33389568 326.51115131 C18.43808723 326.52605703 15.54239498 326.52673775 12.64655495 326.52364159 C10.63126535 326.52438787 8.61599346 326.53811913 6.60075378 326.55232239 C-11.07079511 326.4650661 -28.7307762 323.01913338 -41.70117188 310.16113281 C-56.09239134 293.03530543 -56.20603433 272.93602066 -56.09228516 251.5847168 C-56.07603296 247.94250006 -56.09229614 244.30136526 -56.11132812 240.65917969 C-56.1093485 238.33300538 -56.10551065 236.00683173 -56.09960938 233.68066406 C-56.10568207 232.59735306 -56.11175476 231.51404205 -56.11801147 230.39790344 C-56.02988546 220.99418155 -56.02988546 220.99418155 -52.70117188 217.16113281 C-46.89398066 214.25753721 -38.93614582 216.71314024 -32.90820312 218.02441406 C-31.99914719 218.21706345 -31.09009125 218.40971283 -30.15348816 218.60820007 C-28.2441148 219.01525726 -26.33561707 219.42644154 -24.42797852 219.84155273 C-21.51449444 220.47345441 -18.59748699 221.08661567 -15.6796875 221.69824219 C-13.81811869 222.09751226 -11.95678186 222.49786582 -10.09570312 222.89941406 C-9.22790726 223.08079422 -8.36011139 223.26217438 -7.46601868 223.4490509 C-3.05584725 224.42325259 0.61683942 225.3956594 4.29882812 228.16113281 C5.75841565 231.08030787 5.46423685 233.70493562 5.50976562 236.96191406 C5.53784252 238.34538927 5.56650704 239.72885265 5.59570312 241.11230469 C5.63689405 243.29125533 5.67378394 245.46998723 5.70019531 247.64916992 C5.72791089 249.75388116 5.77378667 251.85759204 5.82226562 253.96191406 C5.85199463 255.8516394 5.85199463 255.8516394 5.88232422 257.77954102 C6.33372166 261.44443313 6.96566633 263.31449649 9.29882812 266.16113281 C14.80661504 269.23655566 21.04600392 268.4905605 27.17382812 268.47363281 C28.91212891 268.49780273 28.91212891 268.49780273 30.68554688 268.52246094 C39.4370129 268.54325957 39.4370129 268.54325957 47.29882812 265.16113281 C49.0967526 261.63335521 49.54500095 258.74964905 49.52587891 254.82006836 C49.52572784 253.77936691 49.52557678 252.73866547 49.52542114 251.66642761 C49.51509857 250.55479752 49.504776 249.44316742 49.49414062 248.29785156 C49.48989578 246.57717216 49.48989578 246.57717216 49.48556519 244.82173157 C49.47438509 241.16392514 49.44928408 237.50636504 49.42382812 233.84863281 C49.41379554 231.36621448 49.40467017 228.8837923 49.39648438 226.40136719 C49.37445283 220.32120525 49.3409966 214.24118663 49.29882812 208.16113281 C48.66911102 207.96227478 48.03939392 207.76341675 47.39059448 207.55853271 C45.45343219 206.94679725 43.51627333 206.33505089 41.57911682 205.72329712 C39.26610217 204.99289321 36.95306224 204.26256936 34.63999939 203.53231812 C28.86128267 201.70781277 23.08275933 199.88270872 17.30521107 198.0545063 C14.03368596 197.01931279 10.7620019 195.98462237 7.49023438 194.95019531 C6.83882414 194.74423107 6.1874139 194.53826683 5.51626396 194.32606125 C-2.89289825 191.66822038 -11.30953251 189.03598264 -19.73632812 186.43457031 C-22.31974095 185.63327278 -24.90292854 184.831254 -27.48602295 184.02893066 C-29.07596686 183.53738697 -30.66698236 183.04929492 -32.25909424 182.56481934 C-34.44435082 181.8997286 -36.62572579 181.22311312 -38.80664062 180.54394531 C-40.60331177 179.99311279 -40.60331177 179.99311279 -42.4362793 179.43115234 C-48.08194664 177.2350287 -52.06906809 174.70240394 -54.70117188 169.16113281 C-55.58862344 166.22997925 -55.83025056 163.59916598 -55.84161377 160.54255676 C-55.84732391 159.61924057 -55.85303406 158.69592438 -55.85891724 157.74462891 C-55.8600351 156.73843506 -55.86115295 155.73224121 -55.86230469 154.69555664 C-55.86975204 153.09704109 -55.86975204 153.09704109 -55.87734985 151.4662323 C-55.89197438 147.93353632 -55.89877738 144.40088538 -55.90429688 140.86816406 C-55.91005229 138.40353902 -55.91580997 135.93891398 -55.92156982 133.47428894 C-55.93208352 128.29674064 -55.9379224 123.11920787 -55.94140625 117.94165039 C-55.94686267 111.34736791 -55.9708278 104.75329486 -55.9993782 98.15907764 C-56.0181299 93.06027151 -56.02321702 87.9615143 -56.02474213 82.86267662 C-56.02774583 80.43451492 -56.03569594 78.0063536 -56.04892731 75.57822609 C-56.22547031 40.66018269 -56.22547031 40.66018269 -49.07617188 27.66113281 C-48.72989746 27.00516113 -48.38362305 26.34918945 -48.02685547 25.67333984 C-40.868262 12.7302185 -29.6718086 5.97768565 -15.77929688 1.92285156 C-10.47257639 0.60964027 -5.4668962 0.03238977 0 0 Z " fill="#003057" transform="translate(500.701171875,33.8388671875)"/>
<path d="M0 0 C0.68083983 -0.00453111 1.36167966 -0.00906223 2.063151 -0.01373065 C4.35553339 -0.02643964 6.64768017 -0.02475014 8.94009399 -0.02310181 C10.57920133 -0.02908304 12.21830584 -0.03588765 13.85740662 -0.04345703 C18.31817328 -0.06116618 22.77886328 -0.06581449 27.23966169 -0.0670886 C30.95992969 -0.06898471 34.68017971 -0.07633896 38.40044081 -0.08343279 C47.17620031 -0.09973327 55.95191876 -0.10460026 64.72769165 -0.10317993 C73.78794711 -0.10197827 82.84796443 -0.1230811 91.90815961 -0.15466726 C99.67975945 -0.18079808 107.45128138 -0.19154856 115.22292483 -0.19026911 C119.8676792 -0.18975851 124.5122221 -0.19549577 129.15693283 -0.21662521 C133.52527408 -0.23595379 137.89320098 -0.23616922 142.26155663 -0.22159195 C143.86599137 -0.21949598 145.47045168 -0.22425147 147.07484245 -0.23631287 C149.2633577 -0.2517014 151.45043281 -0.24250171 153.63891602 -0.22705078 C155.47676194 -0.22868508 155.47676194 -0.22868508 157.35173607 -0.2303524 C161.03252495 0.361696 162.20249727 1.35097872 164.44644165 4.26742554 C166.6309899 12.2574438 162.94896677 22.62166559 161.19326782 30.50033569 C160.63276394 33.02272551 160.09225658 35.54882822 159.55386353 38.07601929 C159.20022251 39.69737014 158.84544416 41.31847343 158.4894104 42.93930054 C158.32990402 43.68629211 158.17039764 44.43328369 158.00605774 45.20291138 C156.72267843 50.88431839 155.50915128 55.89228579 150.44644165 59.26742554 C148.48432636 59.51352119 148.48432636 59.51352119 146.21336365 59.50793457 C144.91981209 59.51205856 144.91981209 59.51205856 143.60012817 59.51626587 C142.65713867 59.50907532 141.71414917 59.50188477 140.74258423 59.49447632 C139.24963081 59.4949144 139.24963081 59.4949144 137.72651672 59.49536133 C134.43124727 59.49396614 131.13620293 59.47839592 127.8409729 59.46273804 C125.55839664 59.45900858 123.27581879 59.45616129 120.99324036 59.4541626 C114.98115633 59.44652084 108.9691687 59.42686764 102.9571228 59.40475464 C95.74598432 59.38071394 88.53481362 59.37151782 81.32364655 59.35984802 C70.36451117 59.34044362 59.40558738 59.30212468 48.44644165 59.26742554 C48.44644165 83.68742554 48.44644165 108.10742554 48.44644165 133.26742554 C56.69708618 133.18041382 56.69708618 133.18041382 65.1144104 133.09164429 C68.60076805 133.06609399 72.08701013 133.04202439 75.57339478 133.02328491 C81.10627235 132.99340446 86.63873589 132.95807119 92.17129517 132.89022827 C96.63225653 132.83586865 101.09277388 132.80599672 105.55404091 132.79303932 C107.25533348 132.78380647 108.95660196 132.76577641 110.65770531 132.73877525 C113.0424878 132.70243049 115.42544007 132.69748217 117.81045532 132.69979858 C118.86350105 132.67283401 118.86350105 132.67283401 119.93782043 132.64532471 C123.76925381 132.68554486 125.33870988 133.18064219 128.3611908 135.61540222 C130.99593915 138.9662768 131.57044578 141.33674122 131.59170532 145.47592163 C131.59808517 146.32044891 131.60446503 147.1649762 131.61103821 148.03509521 C131.61270744 149.39920029 131.61270744 149.39920029 131.6144104 150.79086304 C131.6177388 151.72918976 131.6210672 152.66751648 131.62449646 153.63427734 C131.62955977 155.61973582 131.63190497 157.6052028 131.63174438 159.59066772 C131.63392816 162.6236886 131.65208273 165.65634415 131.67105103 168.68930054 C131.67398563 170.61898679 131.67596998 172.54867478 131.6769104 174.47836304 C131.68409592 175.38371796 131.69128143 176.28907288 131.69868469 177.22186279 C131.6796842 182.47638615 131.39530304 186.42942609 128.34191895 190.87586975 C125.4317578 193.01235094 122.41619451 192.66009401 118.94570923 192.60800171 C117.80388435 192.60865883 117.80388435 192.60865883 116.63899231 192.60932922 C114.12272499 192.60723906 111.60712383 192.58389788 109.0909729 192.56039429 C107.34648503 192.55479913 105.60199244 192.55052865 103.85749817 192.54753113 C99.26573678 192.53607602 94.67426001 192.50660319 90.08261108 192.47341919 C84.57353853 192.43733746 79.06437082 192.42356031 73.55521393 192.40605927 C65.18542521 192.37696615 56.81626101 192.31948385 48.44644165 192.26742554 C48.44644165 217.01742554 48.44644165 241.76742554 48.44644165 267.26742554 C55.8353479 267.22101929 63.22425415 267.17461304 70.83706665 267.12680054 C75.51286191 267.1063669 80.18860227 267.08711144 84.8644104 267.07211304 C92.28916835 267.04818427 99.71372935 267.01985036 107.13833618 266.96566772 C113.12297476 266.92226595 119.10740219 266.89830009 125.09218597 266.88791656 C127.37760493 266.88051506 129.66301209 266.86606199 131.94834137 266.84450531 C135.14490401 266.81554738 138.34058966 266.81146644 141.53726196 266.81332397 C142.48600693 266.79894287 143.43475189 266.78456177 144.4122467 266.76974487 C150.79887451 266.81001044 150.79887451 266.81001044 153.99247742 269.06584167 C156.10966264 272.27167076 156.80529572 275.64846227 157.5519104 279.35726929 C157.80621574 280.52957848 157.80621574 280.52957848 158.06565857 281.72557068 C158.60245506 284.21593048 159.1184075 286.71008698 159.63394165 289.20492554 C159.99130512 290.87904466 160.35001517 292.55287693 160.71011353 294.22640991 C161.64057422 298.56976047 162.5504436 302.91682932 163.44644165 307.26742554 C163.64100952 308.20973022 163.83557739 309.15203491 164.03604126 310.12289429 C164.49899204 312.54202557 164.72253309 314.86862408 164.82144165 317.32992554 C164.87042603 318.1665271 164.9194104 319.00312866 164.96987915 319.86508179 C164.19487254 323.42201512 162.45140007 324.31386235 159.44644165 326.26742554 C156.26830292 326.7707901 156.26830292 326.7707901 152.61477661 326.77536011 C151.60298096 326.78472005 151.60298096 326.78472005 150.57074499 326.79426908 C148.31736321 326.81018541 146.06506524 326.79760135 143.81167603 326.78500366 C142.19344961 326.79042543 140.57522813 326.7975484 138.95701599 326.8062439 C134.56649732 326.82447382 130.17635476 326.81741117 125.78582954 326.80472755 C121.19039015 326.79459815 116.5949829 326.80399307 111.99954224 326.81027222 C104.28240173 326.8175488 96.56541437 326.80796065 88.84829712 326.78890991 C79.92714271 326.76714112 71.00635396 326.77419249 62.08520842 326.79621553 C54.42476379 326.81436924 46.76442923 326.81692801 39.10397005 326.80646086 C34.5291167 326.80022576 29.9544352 326.79939072 25.3795929 326.81260681 C21.07847164 326.8241643 16.77782168 326.81614168 12.47675133 326.79302979 C10.89854909 326.78774212 9.32030717 326.78925751 7.74212074 326.79808044 C5.58691457 326.80901809 3.43321682 326.79529665 1.27810669 326.77536011 C-0.53038883 326.77309795 -0.53038883 326.77309795 -2.37541962 326.7707901 C-6.19691962 326.16552776 -7.85224848 324.99432917 -10.55355835 322.26742554 C-11.56404948 319.23595214 -11.68079929 317.21017658 -11.68498611 314.03962898 C-11.68882726 312.94991991 -11.6926684 311.86021084 -11.69662595 310.73748028 C-11.69575947 309.53565354 -11.69489298 308.33382679 -11.69400024 307.09558105 C-11.69697137 305.82247727 -11.69994249 304.54937349 -11.70300364 303.23769081 C-11.71108176 299.69682686 -11.71286367 296.15598318 -11.71360111 292.61511111 C-11.71545023 288.7990761 -11.7229968 284.98305163 -11.72973633 281.16702271 C-11.74332539 272.82002485 -11.74934511 264.4730318 -11.75374699 256.12602472 C-11.75650814 250.91624887 -11.76074523 245.70647488 -11.76525116 240.49670029 C-11.777444 226.07808359 -11.78774366 211.65946838 -11.79112625 197.24084663 C-11.79134582 196.3178151 -11.79156538 195.39478356 -11.7917916 194.44378137 C-11.79200988 193.51851919 -11.79222816 192.59325702 -11.79245305 191.63995659 C-11.79289652 189.76496577 -11.79334308 187.88997495 -11.79379272 186.01498413 C-11.79401415 185.08492038 -11.79423558 184.15485663 -11.79446372 183.19660912 C-11.79841325 168.12021566 -11.81587191 153.04387049 -11.83915225 137.96749569 C-11.86284975 122.49637487 -11.87532735 107.02527829 -11.87649417 91.55413902 C-11.87741177 82.86456859 -11.88318557 74.17506109 -11.90131378 65.48550797 C-11.9166931 58.08745482 -11.92184806 50.68948406 -11.91357568 43.29141797 C-11.9096616 39.51561878 -11.91063551 35.7399856 -11.92463303 31.9642067 C-11.93965868 27.87376285 -11.93152807 23.78369518 -11.92105103 19.6932373 C-11.92910743 18.495872 -11.93716383 17.2985067 -11.94546437 16.0648576 C-11.93887453 14.96993304 -11.93228468 13.87500847 -11.92549515 12.74690437 C-11.92609224 11.80264725 -11.92668932 10.85839012 -11.92730451 9.88551915 C-10.86058054 2.41311268 -7.0190565 0.01921285 0 0 Z " fill="#003057" transform="translate(1240.5535583496094,33.732574462890625)"/>
<path d="M0 0 C1.30957672 -0.00571014 2.61915344 -0.01142029 3.96841431 -0.01730347 C5.42825308 -0.01854889 6.88809196 -0.01967397 8.34793091 -0.02069092 C9.87866333 -0.02531799 11.4093946 -0.0303425 12.94012451 -0.03573608 C17.10543063 -0.04887232 21.27072062 -0.05530736 25.43604422 -0.05974674 C28.03684425 -0.06267535 30.63763985 -0.06677974 33.23843765 -0.07125092 C41.37135164 -0.08492874 49.50425552 -0.09459414 57.63718021 -0.09845281 C67.03368772 -0.10293515 76.43004987 -0.12049 85.82651317 -0.1494534 C93.08430846 -0.17105012 100.34206279 -0.181156 107.59988987 -0.18249393 C111.93721353 -0.18354335 116.27440062 -0.18948032 120.61169052 -0.20731354 C124.69105818 -0.22375968 128.7701861 -0.22596668 132.84957504 -0.21717453 C134.34758139 -0.21640231 135.84560044 -0.22077123 137.34357452 -0.23063278 C139.38705115 -0.24329753 141.43062354 -0.23570377 143.47412109 -0.22705078 C144.61823393 -0.22851734 145.76234676 -0.2299839 146.94112968 -0.2314949 C150.19935896 0.18311023 151.55956425 0.83401944 153.86404419 3.14044189 C154.80977252 5.97762688 155.00046395 7.77283027 155.025177 10.71612549 C155.03478455 11.64073578 155.04439209 12.56534607 155.05429077 13.51797485 C155.06066559 15.0133226 155.06066559 15.0133226 155.06716919 16.53887939 C155.07286926 17.5659903 155.07856934 18.5931012 155.08444214 19.65133667 C155.09389052 21.82510345 155.10042548 23.99888455 155.10427856 26.17266846 C155.11398597 29.495514 155.14501204 32.81774149 155.17654419 36.14044189 C155.18307419 38.25241739 155.18832467 40.3643973 155.19216919 42.47637939 C155.20451599 43.46922943 155.21686279 44.46207947 155.22958374 45.48501587 C155.20149906 54.19663871 155.20149906 54.19663871 151.86404419 58.14044189 C149.57919866 59.28286466 148.32721531 59.26384533 145.78918457 59.26069641 C144.51031624 59.26275841 144.51031624 59.26275841 143.20561218 59.26486206 C142.26837814 59.26126678 141.3311441 59.25767151 140.36550903 59.25396729 C139.38010635 59.25411331 138.39470367 59.25425934 137.37944031 59.25440979 C134.1112653 59.25371123 130.84314678 59.24592144 127.57498169 59.23809814 C125.3133955 59.23623376 123.05180891 59.23480996 120.79022217 59.23381042 C114.8291208 59.22998682 108.86804367 59.22015786 102.9069519 59.20910645 C95.75923158 59.19709347 88.61150316 59.19248934 81.46377563 59.18665314 C70.59718161 59.17694604 59.73064082 59.15778836 48.86404419 59.14044189 C48.86404419 83.56044189 48.86404419 107.98044189 48.86404419 133.14044189 C57.11468872 133.05343018 57.11468872 133.05343018 65.53201294 132.96466064 C69.01837059 132.93911034 72.50461267 132.91504075 75.99099731 132.89630127 C81.52387489 132.86642081 87.05633842 132.83108755 92.58889771 132.76324463 C97.04985907 132.708885 101.51037642 132.67901308 105.97164345 132.66605568 C107.67293602 132.65682282 109.3742045 132.63879277 111.07530785 132.61179161 C113.46009034 132.57544685 115.84304261 132.57049852 118.22805786 132.57281494 C119.28110359 132.54585037 119.28110359 132.54585037 120.35542297 132.51834106 C124.10488599 132.55770074 125.78112865 133.07767729 128.80184937 135.36427307 C131.00060995 138.32428951 131.49103011 139.51207972 131.49514771 143.12677002 C131.50768082 144.09127075 131.52021393 145.05577148 131.53312683 146.04949951 C131.51986862 147.079823 131.50661041 148.11014648 131.49295044 149.17169189 C131.4953624 150.24036499 131.49777435 151.30903809 131.5002594 152.41009521 C131.49928133 154.66611447 131.48589755 156.92215783 131.46096802 159.17803955 C131.42666215 162.62857708 131.44031212 166.07655303 131.45974731 169.52716064 C131.4528487 171.72118195 131.44317617 173.91519665 131.43045044 176.10919189 C131.43541031 177.13951538 131.44037018 178.16983887 131.44548035 179.23138428 C131.42964401 180.19588501 131.41380768 181.16038574 131.39749146 182.15411377 C131.38819359 183.42055725 131.38819359 183.42055725 131.37870789 184.71258545 C130.64504388 188.17354625 129.47913885 189.75951726 126.86404419 192.14044189 C124.11610726 192.62044285 121.99099318 192.77698996 119.24978638 192.70806885 C118.10774246 192.70916405 118.10774246 192.70916405 116.94262695 192.71028137 C114.43132758 192.70680369 111.92189361 192.66793732 109.41091919 192.62872314 C107.66786716 192.61939558 105.92480201 192.6122792 104.18173218 192.60728455 C99.59796849 192.5882101 95.01499925 192.53910588 90.43154907 192.48376465 C84.93006813 192.42357991 79.42832128 192.40065801 73.92660522 192.37149811 C65.57186599 192.32304062 57.21886923 192.22723024 48.86404419 192.14044189 C48.86404419 216.89044189 48.86404419 241.64044189 48.86404419 267.14044189 C56.10857544 267.10563721 63.35310669 267.07083252 70.81716919 267.03497314 C75.40181265 267.01964779 79.9864246 267.00520614 84.57107544 266.99395752 C91.85092717 266.97601162 99.13066589 266.95476261 106.41043091 266.91412354 C112.27835073 266.88157037 118.14614939 266.86359732 124.01415253 266.85581017 C126.25489968 266.85025941 128.49564006 266.83942039 130.73633575 266.82325172 C133.87052331 266.8015315 137.00420776 266.79847274 140.13845825 266.79986572 C141.53352348 266.78368698 141.53352348 266.78368698 142.95677185 266.7671814 C149.22564451 266.79740697 149.22564451 266.79740697 152.41305542 268.51011658 C154.37823627 270.71818611 154.80622585 272.56982708 155.42654419 275.45294189 C155.78305054 277.05347412 155.78305054 277.05347412 156.14675903 278.68634033 C156.38346313 279.82619385 156.62016724 280.96604736 156.86404419 282.14044189 C157.1175061 283.30349854 157.37096802 284.46655518 157.6321106 285.66485596 C158.14514469 288.02955649 158.65119762 290.39578267 159.150177 292.76348877 C159.79320372 295.80533061 160.45927215 298.84066484 161.13748169 301.87481689 C161.50560205 303.54648674 161.87285302 305.21834839 162.23904419 306.89044189 C162.40662231 307.64454346 162.57420044 308.39864502 162.74685669 309.17559814 C164.44787942 317.19680015 164.44787942 317.19680015 163.86404419 321.14044189 C161.29650078 324.36248245 159.79471878 325.95790498 155.69872952 326.76126766 C154.49914136 326.75925633 153.2995532 326.75724501 152.06361389 326.75517273 C151.39246144 326.76085599 150.721309 326.76653924 150.02981859 326.77239472 C147.78764442 326.78528306 145.54728108 326.76252451 143.3052063 326.73980713 C141.69521201 326.7416715 140.085219 326.74570882 138.47523499 326.75175476 C134.10738552 326.76173007 129.7401849 326.74055894 125.37242961 326.71327472 C120.80190326 326.68944496 116.23138978 326.69238967 111.66081238 326.69197083 C103.9865012 326.68734285 96.31243814 326.66370074 88.63821411 326.62750244 C79.76370009 326.58575415 70.88940945 326.5681867 62.01480287 326.5648827 C52.56832109 326.5612839 43.12191977 326.54241087 33.67547154 326.51776242 C30.95240385 326.51153225 28.22934228 326.50789692 25.50626945 326.50472832 C21.22905237 326.4988296 16.95199506 326.48252171 12.67484474 326.45812416 C11.10428985 326.45068095 9.53371485 326.44661202 7.9631424 326.4461441 C5.82109355 326.44488716 3.67946651 326.4313483 1.53749084 326.41459656 C0.33827971 326.40994605 -0.86093142 326.40529554 -2.09648228 326.40050411 C-5.07925232 326.14529354 -6.72398537 325.88153801 -9.13595581 324.14044189 C-11.13010408 320.95834047 -11.38703631 318.47797682 -11.3904314 314.75836277 C-11.3962636 313.65969586 -11.40209579 312.56102895 -11.40810472 311.4290691 C-11.40432539 310.2223733 -11.40054607 309.0156775 -11.39665222 307.77241516 C-11.40047777 306.49028985 -11.40430332 305.20816454 -11.40824479 303.88718694 C-11.41855192 300.32575258 -11.4163361 296.76441857 -11.41206419 293.20297587 C-11.40960189 289.36309441 -11.41860494 285.52323743 -11.42610168 281.68336487 C-11.43886442 274.15971895 -11.44064043 266.63610869 -11.43830142 259.11245377 C-11.4365199 252.99845693 -11.43826433 246.88447093 -11.44252586 240.77047539 C-11.44341865 239.4662586 -11.44341865 239.4662586 -11.44432947 238.13569401 C-11.44554119 236.3694708 -11.44675532 234.60324759 -11.44797184 232.83702438 C-11.45885339 216.26577071 -11.45668195 199.69453737 -11.450587 183.12328254 C-11.44541697 167.95641797 -11.45667446 152.7896176 -11.47568522 137.62276573 C-11.49504711 122.05668804 -11.50332254 106.49064076 -11.49956197 90.92455095 C-11.49764745 82.18246278 -11.50016178 73.44042927 -11.5142765 64.69835091 C-11.52617027 57.25639874 -11.52761777 49.81453488 -11.51548634 42.37258155 C-11.50958358 38.57450214 -11.50853657 34.77658442 -11.52048874 30.97851562 C-11.53328635 26.86403205 -11.52291643 22.74993589 -11.51017761 18.63545227 C-11.5175519 17.43098719 -11.52492618 16.22652211 -11.53252393 14.98555809 C-11.52531739 13.88428343 -11.51811084 12.78300878 -11.51068592 11.64836216 C-11.51074094 10.69857158 -11.51079595 9.74878101 -11.51085263 8.7702089 C-11.0600929 5.60829071 -9.99546332 3.71593823 -8.13595581 1.14044189 C-5.36139676 -0.24683763 -3.10597869 0.00808079 0 0 Z " fill="#003057" transform="translate(257.1359558105469,33.85955810546875)"/>
<path d="M0 0 C1.56615807 -0.00929787 1.56615807 -0.00929787 3.16395569 -0.01878357 C5.36865305 -0.02587687 7.57340402 -0.02271635 9.77807617 -0.01000977 C13.14537516 0.00384543 16.50988916 -0.03021195 19.87695312 -0.06835938 C22.02213609 -0.06931071 24.16732253 -0.06745097 26.3125 -0.0625 C27.31578842 -0.07575821 28.31907684 -0.08901642 29.35276794 -0.10267639 C30.29717239 -0.09014328 31.24157684 -0.07761017 32.21459961 -0.06469727 C33.03890976 -0.0637355 33.86321991 -0.06277374 34.71250916 -0.06178284 C38.3211615 0.84131803 40.78111564 2.8429245 43.22265625 5.56640625 C44.57360172 9.01156807 44.57360172 9.01156807 45.40211487 12.9133606 C45.63520004 13.96736941 45.63520004 13.96736941 45.87299401 15.04267132 C46.34647351 17.21303524 46.78684666 19.38820329 47.22265625 21.56640625 C47.49013105 22.82912228 47.75760586 24.0918383 48.03318596 25.39281845 C48.83744568 29.26107437 49.59960274 33.13644514 50.35131836 37.01513672 C50.63900269 38.48275107 50.92705452 39.95029342 51.21543884 41.41777039 C51.98784223 45.3536702 52.75515477 49.29054614 53.52144694 53.22763968 C54.33289382 57.39201859 55.14910119 61.55546455 55.96473694 65.71902466 C57.33492422 72.71677597 58.70213133 79.71510369 60.06713867 86.71386719 C61.97445638 96.49319965 63.88691299 106.27152155 65.80054843 116.04961944 C72.6503768 151.05369315 72.6503768 151.05369315 76.04139501 168.5052954 C76.94056046 173.12869399 77.85009338 177.74995536 78.76296997 182.3706665 C79.22691094 184.73684064 79.69077294 187.10303026 80.15454102 189.46923828 C80.36654868 190.53161146 80.57855635 191.59398464 80.79698849 192.68855095 C80.98668996 193.66145639 81.17639143 194.63436184 81.37184143 195.63674927 C81.5373327 196.47422258 81.70282396 197.3116959 81.87333012 198.1745472 C82.23799157 200.67140816 82.28378557 203.04667328 82.22265625 205.56640625 C82.88265625 205.56640625 83.54265625 205.56640625 84.22265625 205.56640625 C84.27036037 204.97441437 84.3180645 204.38242249 84.3672142 203.77249146 C84.95306441 197.20396305 86.02766742 190.83137184 87.33300781 184.37109375 C87.54659565 183.29429698 87.76018349 182.21750021 87.98024368 181.10807323 C88.6868164 177.55161755 89.40006838 173.99653572 90.11328125 170.44140625 C90.61538917 167.91995343 91.11704821 165.39841119 91.61828613 162.87678528 C92.81789661 156.84719281 94.02167514 150.81844705 95.22776985 144.79014868 C97.4366216 133.74950533 99.63817872 122.70740433 101.83996749 111.66535062 C102.52129343 108.24851363 103.20285806 104.83172463 103.88497162 101.41504478 C107.00062499 85.80775268 110.09279174 70.19657454 113.09052277 54.56613541 C113.55528009 52.14392455 114.02168945 49.72203815 114.4887085 47.30026245 C114.77993326 45.78937269 115.07113273 44.27847806 115.36230469 42.76757812 C115.50008205 42.05271807 115.63785942 41.33785801 115.77981186 40.60133553 C116.43890383 37.17562485 117.09247654 33.7490222 117.73449707 30.32006836 C118.42217035 26.6563802 119.12538192 22.99600396 119.83203125 19.3359375 C120.01954956 18.30741165 120.20706787 17.2788858 120.40026855 16.2191925 C121.47060403 10.76299108 122.64329032 6.87253611 126.22265625 2.56640625 C129.4052594 0.44467081 130.23691316 0.30939472 133.89013672 0.27587891 C134.83476776 0.2631192 135.7793988 0.2503595 136.75265503 0.23721313 C137.77142731 0.23498749 138.79019958 0.23276184 139.83984375 0.23046875 C140.8891507 0.22381195 141.93845764 0.21715515 143.01956177 0.21029663 C145.24039964 0.20016693 147.46126796 0.19547971 149.68212891 0.19580078 C153.07765996 0.19143198 156.47188687 0.15512657 159.8671875 0.1171875 C162.02473514 0.11131856 164.18228895 0.10734968 166.33984375 0.10546875 C167.35456757 0.09109772 168.36929138 0.07672668 169.4147644 0.06192017 C173.8687739 0.09074092 176.4756163 0.11022633 180.34033203 2.47021484 C183.6661551 6.17391353 183.44397003 8.63733594 183.22265625 13.56640625 C182.75177276 16.59364264 182.08163779 19.56379423 181.39477539 22.54858398 C181.1964231 23.43807393 180.99807081 24.32756388 180.79370785 25.24400806 C180.12206749 28.24762025 179.43980826 31.2487235 178.7578125 34.25 C178.2639559 36.44977546 177.77081458 38.64971161 177.27832031 40.84979248 C175.91142671 46.9475516 174.53551576 53.04324493 173.15797806 59.13860703 C170.89931957 69.14109646 168.65424365 79.14665429 166.40704519 89.1517238 C165.58522233 92.81059596 164.76301927 96.46938193 163.94005013 100.12799644 C158.41667281 124.68434856 152.96400089 149.25594145 147.53870732 173.83413833 C145.91124808 181.20642578 144.28143545 188.57818967 142.65000916 195.94960022 C142.41946262 196.9913293 142.18891609 198.03305838 141.95138329 199.10635501 C141.02004335 203.3143609 140.08860943 207.52234594 139.15691936 211.73027432 C136.3705643 224.31479642 133.59130716 236.90083588 130.82312953 249.48936927 C129.0619577 257.49492433 127.29138076 265.49836421 125.51370728 273.50027096 C124.47463145 278.17901863 123.4399479 282.85863362 122.41635132 287.54079437 C121.46989775 291.8697581 120.51173225 296.19595672 119.54431331 300.52028191 C119.19451672 302.0936675 118.84904712 303.66802249 118.50830948 305.24339473 C118.04343192 307.38965207 117.56295844 309.53184125 117.07850647 311.67375183 C116.81491364 312.8679433 116.55132082 314.06213476 116.27974033 315.29251385 C114.89872271 319.56965997 113.02474408 323.3123308 109.27146912 325.92424011 C106.90155983 326.66704855 104.92631135 326.82725114 102.44165039 326.84106445 C101.49709488 326.85059647 100.55253937 326.86012848 99.57936096 326.86994934 C98.56574997 326.86903793 97.55213898 326.86812653 96.5078125 326.8671875 C95.4599205 326.87147263 94.4120285 326.87575775 93.3323822 326.88017273 C91.11751019 326.88591253 88.90261934 326.88641887 86.68774414 326.88208008 C83.3012675 326.87892128 79.91566545 326.9023803 76.52929688 326.92773438 C74.37630318 326.93000753 72.22330715 326.93071079 70.0703125 326.9296875 C69.05872574 326.93889725 68.04713898 326.94810699 67.00489807 326.95759583 C57.96344964 326.89817108 57.96344964 326.89817108 54.22265625 323.56640625 C51.61838605 319.80029085 50.50264999 316.37966605 49.51879883 311.92578125 C49.37103878 311.26855985 49.22327873 310.61133844 49.07104111 309.93420124 C48.57782726 307.73008581 48.09755852 305.52335339 47.6171875 303.31640625 C47.26272007 301.71957242 46.90746786 300.12291263 46.55149841 298.52641296 C45.57532305 294.13735963 44.61050419 289.74587592 43.64753723 285.35390854 C42.60776906 280.62097879 41.55758359 275.8903599 40.50878906 271.15942383 C38.45335639 261.87924821 36.40799615 252.59688064 34.36661339 243.31360531 C32.69721433 235.72203859 31.02510765 228.13107345 29.35107422 220.54052734 C25.38341241 202.54886509 21.41773336 184.5567703 17.46191406 166.5625 C17.21198889 165.42565577 16.96206371 164.28881153 16.70456505 163.11751747 C16.45400164 161.97776655 16.20343822 160.83801563 15.94528198 159.66372681 C11.18252901 137.99943493 6.40839834 116.33770489 1.6171875 94.6796875 C1.34857533 93.46544287 1.07996315 92.25119823 0.80321121 91.00015831 C-1.79505533 79.25571234 -4.39468654 67.5115688 -6.995471 55.76768017 C-7.94011623 51.50175424 -8.88440481 47.23574941 -9.82863808 42.96973228 C-10.47538131 40.04856534 -11.12270767 37.12752803 -11.77006531 34.20649719 C-12.15785579 32.45472852 -12.54561893 30.70295379 -12.93334961 28.95117188 C-13.10717541 28.16764689 -13.28100121 27.38412191 -13.46009445 26.57685375 C-15.96213887 15.26380262 -15.96213887 15.26380262 -16.15234375 10.00390625 C-16.20132813 9.07449219 -16.2503125 8.14507812 -16.30078125 7.1875 C-15.77734375 4.56640625 -15.77734375 4.56640625 -13.91821289 2.43798828 C-9.33344147 -0.29398666 -5.24678748 -0.02588586 0 0 Z " fill="#003057" transform="translate(1012.77734375,33.43359375)"/>
<path d="M0 0 C1.47678223 -0.0236412 1.47678223 -0.0236412 2.98339844 -0.04776001 C4.0355957 -0.03763885 5.08779297 -0.0275177 6.171875 -0.01708984 C7.80817871 -0.02426529 7.80817871 -0.02426529 9.47753906 -0.03158569 C11.78061365 -0.03498347 14.08373655 -0.02578977 16.38671875 -0.00488281 C19.90994917 0.02188206 23.42999356 -0.00463736 26.953125 -0.03662109 C29.19271536 -0.03331698 31.43230374 -0.02691071 33.671875 -0.01708984 C35.2501709 -0.03227158 35.2501709 -0.03227158 36.86035156 -0.04776001 C37.84487305 -0.03199921 38.82939453 -0.0162384 39.84375 0 C41.13684082 0.00596695 41.13684082 0.00596695 42.45605469 0.01205444 C46.23444483 0.98494314 47.55337322 2.54700252 49.921875 5.64697266 C50.65798054 9.16034665 50.57501283 12.61631195 50.52314758 16.19477844 C50.52741971 17.26894129 50.53169183 18.34310413 50.53609341 19.44981736 C50.54434064 23.05542705 50.51680787 26.65987803 50.48950195 30.26538086 C50.48809187 32.84736605 50.48888268 35.42935325 50.49171448 38.01133728 C50.49433545 43.57333217 50.47865661 49.13503364 50.45052528 54.69695473 C50.40987893 62.73849301 50.39686694 70.77988952 50.39058533 78.8215194 C50.37964389 91.86864218 50.34637388 104.9156086 50.29907227 117.96264648 C50.25317271 130.63614113 50.21778277 143.3095933 50.1965332 155.9831543 C50.19521959 156.76443352 50.19390597 157.54571274 50.19255254 158.3506671 C50.18602733 162.27014033 50.17970879 166.18961386 50.17349303 170.10908759 C50.12166473 202.62182977 50.03360366 235.13438029 49.921875 267.64697266 C51.01546326 267.63809021 52.10905151 267.62920776 53.23577881 267.62005615 C63.53577595 267.53901162 73.8357085 267.47902709 84.135952 267.43972397 C89.43159003 267.41883858 94.72697091 267.39050334 100.02246094 267.34521484 C105.13178285 267.30179137 110.24085724 267.27784272 115.35034943 267.26746368 C117.30084379 267.26006604 119.25132442 267.24562033 121.20171356 267.22405243 C123.93132428 267.19506493 126.65990887 267.19101469 129.38964844 267.19287109 C130.19813232 267.17848999 131.00661621 267.16410889 131.83959961 267.14929199 C135.37594877 267.17535986 137.48718498 267.32918359 140.3818512 269.44538879 C142.60682527 272.62616237 143.27451209 275.99712656 144.02734375 279.73681641 C144.28164909 280.9091256 144.28164909 280.9091256 144.54109192 282.1051178 C145.07788841 284.5954776 145.59384085 287.0896341 146.109375 289.58447266 C146.46673847 291.25859177 146.82544852 292.93242405 147.18554688 294.60595703 C148.11600757 298.94930759 149.02587695 303.29637644 149.921875 307.64697266 C150.11644287 308.58927734 150.31101074 309.53158203 150.51147461 310.50244141 C150.97442539 312.92157269 151.19796644 315.2481712 151.296875 317.70947266 C151.34585938 318.54607422 151.39484375 319.38267578 151.4453125 320.24462891 C150.67362933 323.78630913 148.89992714 324.68798493 145.921875 326.64697266 C142.96237946 327.15313053 142.96237946 327.15313053 139.6217041 327.16163635 C138.35151932 327.17436081 137.08133453 327.18708527 135.7726593 327.20019531 C134.37252621 327.19401343 132.97239493 327.18740744 131.57226562 327.18041992 C130.09196615 327.18748021 128.6116739 327.1962257 127.13139343 327.20652771 C123.11690058 327.22901805 119.10280203 327.22608317 115.08827019 327.21720624 C111.73575558 327.21209451 108.38331496 327.2193903 105.03080797 327.22667831 C97.12219807 327.24367577 89.21378112 327.2401126 81.30517578 327.22338867 C73.14739051 327.20646089 64.99014007 327.22231096 56.8324132 327.25461155 C49.82588254 327.28130248 42.81951842 327.28858503 35.81294203 327.28009647 C31.62926836 327.27516654 27.44591661 327.27738634 23.26228333 327.29788399 C19.32877325 327.31623399 15.39603311 327.31029171 11.46256447 327.28568459 C10.019813 327.2806747 8.57700293 327.28417124 7.13429832 327.29683304 C5.16359863 327.31275947 3.19271216 327.29479411 1.2220459 327.27516174 C0.11962303 327.27457543 -0.98279984 327.27398912 -2.11862946 327.27338505 C-6.38562798 326.37022412 -7.65653745 325.30995634 -10.078125 321.64697266 C-10.8193974 317.46118419 -10.75208981 313.32421523 -10.71304321 309.08276367 C-10.72084317 307.79161683 -10.72864312 306.50046999 -10.73667943 305.17019749 C-10.75756512 301.58802902 -10.74723042 298.00652599 -10.73174834 294.42435503 C-10.72044555 290.56059781 -10.73789217 286.69695584 -10.75164795 282.83322144 C-10.77389646 275.26485736 -10.76907207 267.69674102 -10.75458474 260.12836719 C-10.74329881 253.97814572 -10.7417588 247.82799374 -10.74720383 241.67776489 C-10.74835307 240.36542526 -10.74835307 240.36542526 -10.74952554 239.02657372 C-10.75112415 237.24931802 -10.75274521 235.47206235 -10.7543885 233.69480669 C-10.76865072 217.02430794 -10.75224587 200.35394659 -10.72538666 183.68347037 C-10.70304744 169.3753372 -10.70692744 155.06740685 -10.72998047 140.75927734 C-10.75673014 124.14897668 -10.76727738 107.53879648 -10.75191915 90.92847729 C-10.75032638 89.15771168 -10.74875453 87.38694606 -10.74720383 85.61618042 C-10.74643245 84.74490007 -10.74566107 83.87361973 -10.74486632 82.97593695 C-10.74054681 76.83216467 -10.74784126 70.68846871 -10.75960159 64.54470825 C-10.7736159 57.05879459 -10.76984933 49.57314311 -10.74319787 42.08725953 C-10.73004507 38.26680586 -10.72493172 34.44678952 -10.74144363 30.62633896 C-10.75906095 26.48757143 -10.73804571 22.34991079 -10.71304321 18.21118164 C-10.72419682 16.99961679 -10.73535043 15.78805193 -10.74684203 14.53977299 C-10.64048691 5.5050354 -10.64048691 5.5050354 -7.69255638 2.40139198 C-4.82999135 0.48046208 -3.41310681 0.01574973 0 0 Z " fill="#003057" transform="translate(871.078125,33.35302734375)"/>
<path d="M0 0 C0.88464432 -0.01606293 1.76928864 -0.03212585 2.68074036 -0.04867554 C6.72839607 -0.09312606 10.77588777 -0.13419031 14.82373047 -0.15722656 C16.95860697 -0.17378732 19.09342801 -0.20107878 21.22802734 -0.23925781 C24.30554985 -0.29402224 27.38177265 -0.31590003 30.4597168 -0.33056641 C31.41195633 -0.35323578 32.36419586 -0.37590515 33.34529114 -0.39926147 C37.65513523 -0.38552341 40.0880984 -0.19490263 43.82128906 2.09082031 C46.53673296 6.52387057 46.4403577 10.23871281 46.38549805 15.34912109 C46.39028168 16.32901001 46.39506531 17.30889893 46.3999939 18.31848145 C46.40338995 20.38616546 46.39420818 22.45390338 46.37329102 24.52148438 C46.34652169 27.68269811 46.37304926 30.84036127 46.4050293 34.00146484 C46.40172515 36.01319141 46.39531881 38.02491578 46.38549805 40.03662109 C46.3956192 40.97944946 46.40574036 41.92227783 46.41616821 42.89367676 C46.33987096 47.17509848 46.09250362 49.59433159 43.80102539 53.29052734 C39.42724578 55.99232619 35.83331362 55.87651248 30.78393555 55.78662109 C29.82624268 55.78666138 28.8685498 55.78670166 27.88183594 55.78674316 C25.86117983 55.78139229 23.84052395 55.76382808 21.82006836 55.73486328 C18.73185441 55.69301229 15.64582278 55.69379632 12.55737305 55.70068359 C10.5912121 55.69019035 8.62506237 55.67725153 6.65893555 55.66162109 C5.73798096 55.66141968 4.81702637 55.66121826 3.86816406 55.66101074 C-0.92910187 55.57270242 -4.46489231 55.45022285 -8.27856445 52.19287109 C-9.46538171 48.63241932 -9.37546277 45.75478772 -9.34106445 42.00537109 C-9.33204102 40.73306641 -9.32301758 39.46076172 -9.3137207 38.14990234 C-9.29631836 36.68617188 -9.29631836 36.68617188 -9.27856445 35.19287109 C-9.83566156 35.19438998 -10.39275867 35.19590886 -10.96673751 35.19747376 C-43.9679446 35.28694127 -76.96912135 35.35559462 -109.97042249 35.39713241 C-113.93088408 35.40213538 -117.89134542 35.40731265 -121.85180664 35.41259766 C-122.6402797 35.4136469 -123.42875276 35.41469614 -124.24111894 35.41577718 C-137.01631111 35.43319337 -149.79143145 35.46473772 -162.56658098 35.50148228 C-175.67021961 35.53885797 -188.77382056 35.56109979 -201.87751031 35.56922507 C-209.96646036 35.57471987 -218.0552074 35.59208887 -226.14409497 35.62453696 C-232.34148644 35.64813452 -238.53872239 35.65069947 -244.73615265 35.64530182 C-247.28232577 35.64640569 -249.82850631 35.65440744 -252.37463379 35.66969299 C-255.84173803 35.68949318 -259.30796231 35.68484603 -262.77508545 35.67388916 C-263.79064443 35.68554053 -264.80620342 35.69719189 -265.85253692 35.70919633 C-272.61437598 35.65113928 -272.61437598 35.65113928 -275.90378189 33.38155746 C-277.93602121 30.14618438 -277.81228343 27.92890395 -277.27856445 24.19287109 C-275.90378189 22.00418472 -275.90378189 22.00418472 -273.27856445 20.19287109 C-269.78139063 19.59439279 -266.31523484 19.67123739 -262.77508545 19.71185303 C-261.69360993 19.70843533 -260.6121344 19.70501763 -259.4978869 19.70149636 C-255.86168716 19.6948899 -252.22622001 19.71694019 -248.59008789 19.73876953 C-245.98854591 19.73989741 -243.38700266 19.73926533 -240.78546143 19.73699951 C-235.17820352 19.73490148 -229.5711317 19.74745787 -223.96392059 19.76995087 C-215.85685421 19.80245073 -207.74987786 19.8128758 -199.64275339 19.81790283 C-186.48973054 19.82665866 -173.33680688 19.85328202 -160.18383789 19.89111328 C-147.40649919 19.92782594 -134.62918743 19.95614134 -121.85180664 19.97314453 C-120.67053273 19.97472087 -120.67053273 19.97472087 -119.46539471 19.97632906 C-115.5146826 19.98154919 -111.56397031 19.98660402 -107.61325788 19.99157667 C-74.83495453 20.03304767 -42.05677276 20.10350389 -9.27856445 20.19287109 C-9.31336914 19.24025391 -9.34817383 18.28763672 -9.3840332 17.30615234 C-9.41110352 16.05189453 -9.43817383 14.79763672 -9.46606445 13.50537109 C-9.50086914 12.26400391 -9.53567383 11.02263672 -9.5715332 9.74365234 C-9.26068745 5.97620178 -8.55585015 4.16492192 -6.27856445 1.19287109 C-3.96594742 0.03656258 -2.57544344 0.04246872 0 0 Z " fill="#003057" transform="translate(1700.278564453125,167.80712890625)"/>
<path d="M0 0 C0.84775497 -0.00637985 1.69550995 -0.0127597 2.56895447 -0.01933289 C3.4814949 -0.02044571 4.39403534 -0.02155853 5.33422852 -0.02270508 C6.27492691 -0.02603348 7.21562531 -0.02936188 8.18482971 -0.03279114 C10.17448436 -0.03785398 12.16414751 -0.04019966 14.15380859 -0.04003906 C17.19781475 -0.04222533 20.24145838 -0.06038724 23.28540039 -0.0793457 C25.21834186 -0.08227979 27.15128505 -0.08426448 29.08422852 -0.08520508 C29.99474472 -0.09239059 30.90526093 -0.09957611 31.84336853 -0.10697937 C32.69427567 -0.10390274 33.5451828 -0.10082611 34.421875 -0.09765625 C35.16783432 -0.09908127 35.91379364 -0.10050629 36.68235779 -0.10197449 C39.1710732 0.19196913 40.68800744 0.75401069 42.77563477 2.14526367 C44.62673278 4.93035341 45.02970516 7.16097251 45.05029297 10.46728516 C45.05982498 11.31173691 45.06935699 12.15618866 45.07917786 13.02622986 C45.07781075 14.382593 45.07781075 14.382593 45.07641602 15.76635742 C45.08070114 16.7032692 45.08498627 17.64018097 45.08940125 18.60548401 C45.09513857 20.5849629 45.09564921 22.56446287 45.09130859 24.54394531 C45.08814985 27.56831931 45.11161105 30.59171378 45.13696289 33.6159668 C45.1392361 35.54109577 45.13993928 37.46622738 45.13891602 39.39135742 C45.14812576 40.29357529 45.15733551 41.19579315 45.16682434 42.12535095 C45.13147853 46.93515311 44.95840936 50.26609043 41.77563477 54.14526367 C39.43261059 55.31677576 38.00140736 55.29015151 35.3894043 55.32226562 C34.02756516 55.34151848 34.02756516 55.34151848 32.63821411 55.36116028 C31.65489105 55.36854721 30.67156799 55.37593414 29.65844727 55.38354492 C28.64974579 55.39161667 27.64104431 55.39968842 26.60177612 55.40800476 C24.4649223 55.4218496 22.32804633 55.43256996 20.19116211 55.44042969 C16.92071781 55.45765788 13.65128024 55.50154264 10.38110352 55.5456543 C8.30689221 55.55577968 6.2326723 55.56429626 4.15844727 55.57104492 C3.17917267 55.58855301 2.19989807 55.6060611 1.19094849 55.62409973 C-5.56167323 55.60249033 -5.56167323 55.60249033 -8.84887695 53.33447266 C-10.85456205 50.14225074 -10.61237219 47.62145157 -10.47436523 43.89526367 C-10.43827148 42.63198242 -10.40217773 41.36870117 -10.36499023 40.06713867 C-10.31858398 39.10291992 -10.27217773 38.13870117 -10.22436523 37.14526367 C-26.5182826 35.52246089 -26.5182826 35.52246089 -41.15014648 40.71948242 C-43.55788718 43.35564461 -45.41551318 46.28889929 -47.17553711 49.38647461 C-48.85926861 52.2099387 -50.98239307 54.63904179 -53.09936523 57.14526367 C-54.11643555 58.41370117 -54.11643555 58.41370117 -55.15405273 59.70776367 C-56.17885742 60.91432617 -56.17885742 60.91432617 -57.22436523 62.14526367 C-58.13544289 63.43914001 -58.13544289 63.43914001 -59.06492615 64.75915527 C-63.99652959 68.48365828 -68.82552935 67.82648532 -74.84570312 67.76049805 C-76.1274794 67.76604706 -77.40925568 67.77159607 -78.72987366 67.77731323 C-82.23828562 67.79154216 -85.74591205 67.77452029 -89.25424886 67.75102806 C-92.9279138 67.73089974 -96.60154676 67.73679957 -100.2752533 67.73913574 C-106.44307389 67.7390822 -112.61058784 67.71934066 -118.77832031 67.68725586 C-125.90788645 67.65034774 -133.03705122 67.64158278 -140.16670042 67.64855337 C-147.02836337 67.65485912 -153.88988878 67.64410386 -160.75152397 67.62458801 C-163.67050576 67.61641591 -166.58941723 67.6137041 -169.5084095 67.61528015 C-173.58328638 67.61632251 -177.65763416 67.59214722 -181.73242188 67.56518555 C-182.94448303 67.56811615 -184.15654419 67.57104675 -185.40533447 67.57406616 C-186.51427567 67.56271637 -187.62321686 67.55136658 -188.76576233 67.53967285 C-189.72899446 67.53594414 -190.69222658 67.53221542 -191.68464756 67.52837372 C-194.7119703 67.07170967 -196.08542885 66.32388332 -198.22436523 64.14526367 C-198.90778232 58.76335412 -198.90778232 58.76335412 -198.22436523 56.14526367 C-196.19701039 53.65696593 -195.00793088 52.29833056 -191.81072903 51.67376804 C-190.90691022 51.68696551 -190.00309141 51.70016298 -189.07188416 51.71376038 C-188.030513 51.71863464 -186.98914185 51.72350891 -185.91621399 51.72853088 C-184.77903427 51.75398483 -183.64185455 51.77943878 -182.47021484 51.80566406 C-181.26810364 51.81620819 -180.06599243 51.82675232 -178.82745361 51.83761597 C-176.21390399 51.8617892 -173.60140872 51.89291889 -170.98817253 51.93449593 C-166.84723696 51.99792238 -162.7066819 52.02116292 -158.56532288 52.03623962 C-146.78959231 52.08384658 -135.01484334 52.15992374 -123.24023438 52.33349609 C-116.73519362 52.42905485 -110.23153851 52.47762727 -103.72577673 52.47476572 C-100.28710207 52.47530852 -96.85237891 52.49972023 -93.41462517 52.58268929 C-78.4502925 53.6624055 -78.4502925 53.6624055 -65.15139771 48.30102539 C-62.23736712 45.21227379 -60.2538984 41.85980099 -58.22436523 38.14526367 C-57.13572951 36.7795308 -56.02055811 35.43308278 -54.84936523 34.13745117 C-53.51881087 32.55765752 -52.18858993 30.97762033 -50.86108398 29.39526367 C-45.1284983 22.5973302 -45.1284983 22.5973302 -42.22436523 21.14526367 C-39.81597845 21.05886498 -37.43702642 21.02958604 -35.02905273 21.04760742 C-34.32160919 21.04902237 -33.61416565 21.05043732 -32.88528442 21.05189514 C-30.62326855 21.05749767 -28.36135125 21.07005049 -26.09936523 21.08276367 C-24.56681458 21.08777835 -23.03426237 21.09234131 -21.50170898 21.09643555 C-17.74255635 21.1074679 -13.98347751 21.12473416 -10.22436523 21.14526367 C-10.25916992 20.03666992 -10.29397461 18.92807617 -10.32983398 17.78588867 C-10.35797872 16.32236219 -10.38527815 14.85881928 -10.41186523 13.39526367 C-10.43700195 12.6656543 -10.46213867 11.93604492 -10.48803711 11.18432617 C-10.53234935 7.93476181 -10.45975284 5.58132094 -8.90014648 2.69213867 C-6.16641076 0.16869031 -3.55377215 0.01817891 0 0 Z M4.77563477 16.14526367 C4.77563477 24.06526367 4.77563477 31.98526367 4.77563477 40.14526367 C12.69563477 40.14526367 20.61563477 40.14526367 28.77563477 40.14526367 C28.77563477 32.22526367 28.77563477 24.30526367 28.77563477 16.14526367 C20.85563477 16.14526367 12.93563477 16.14526367 4.77563477 16.14526367 Z " fill="#003057" transform="translate(1641.224365234375,97.854736328125)"/>
<path d="M0 0 C3.71080987 -0.06352218 7.42172441 -0.10817445 11.13283157 -0.15031052 C12.87623239 -0.17496868 14.61953393 -0.20842434 16.36258316 -0.25124741 C18.76319885 -0.30934444 21.16234365 -0.3363926 23.56353378 -0.35663223 C24.26214775 -0.38164055 24.96076172 -0.40664886 25.68054581 -0.43241501 C31.28908326 -0.42885551 33.46605987 1.36048842 37.29107285 5.14043808 C38.73586196 6.76484963 40.13292232 8.43299756 41.47857285 10.14043808 C44.04684509 13.36173518 46.62573048 16.55399064 49.31451035 19.67559433 C49.81958115 20.2627623 50.32465195 20.84993027 50.84502792 21.4548912 C51.83874403 22.60637321 52.83590097 23.75489612 53.83672714 24.9002037 C57.29107285 28.92007568 57.29107285 28.92007568 57.29107285 31.14043808 C66.20107285 31.14043808 75.11107285 31.14043808 84.29107285 31.14043808 C84.17291153 26.38356062 84.17291153 26.38356062 84.02080917 21.62774277 C83.98232987 18.55105356 84.12922546 16.43644214 85.6152916 13.71856308 C88.3363822 11.15604419 90.94851384 11.01342059 94.51543808 10.99517441 C95.36319305 10.98879456 96.21094803 10.9824147 97.08439255 10.97584152 C97.99693298 10.9747287 98.90947342 10.97361588 99.8496666 10.97246933 C100.79036499 10.96914093 101.73106339 10.96581253 102.70026779 10.96238327 C104.68992244 10.95732043 106.67958559 10.95497475 108.66924667 10.95513535 C111.71325283 10.95294908 114.75689645 10.93478717 117.80083847 10.9158287 C119.73377994 10.91289462 121.66672313 10.91090992 123.5996666 10.90996933 C124.5101828 10.90278381 125.42069901 10.8955983 126.35880661 10.88819504 C127.20971375 10.89127167 128.06062088 10.8943483 128.93731308 10.89751816 C129.6832724 10.89609314 130.42923172 10.89466812 131.19779587 10.89319992 C133.68651128 11.18714354 135.20344552 11.7491851 137.29107285 13.14043808 C139.14217086 15.92552782 139.54514324 18.15614692 139.56573105 21.46245956 C139.57526306 22.30691132 139.58479507 23.15136307 139.59461594 24.02140427 C139.59324883 25.37776741 139.59324883 25.37776741 139.5918541 26.76153183 C139.59613922 27.6984436 139.60042435 28.63535538 139.60483932 29.60065842 C139.61057665 31.58013731 139.61108729 33.55963728 139.60674667 35.53911972 C139.60358793 38.56349372 139.62704913 41.58688819 139.65240097 44.6111412 C139.65467418 46.53627018 139.65537736 48.46140178 139.6543541 50.38653183 C139.66356384 51.28874969 139.67277359 52.19096756 139.68226242 53.12052536 C139.64691661 57.93032752 139.47384744 61.26126484 136.29107285 65.14043808 C133.94804867 66.31195017 132.51684544 66.28532591 129.90484238 66.31744003 C128.54300323 66.33669289 128.54300323 66.33669289 127.15365219 66.35633469 C125.6786676 66.36741508 125.6786676 66.36741508 124.17388535 66.37871933 C123.16518387 66.38679108 122.15648239 66.39486282 121.1172142 66.40317917 C118.98036038 66.417024 116.84348441 66.42774437 114.70660019 66.4356041 C111.43615589 66.45283229 108.16671832 66.49671705 104.8965416 66.5408287 C102.82233029 66.55095409 100.74811038 66.55947067 98.67388535 66.56621933 C97.69461075 66.58372742 96.71533615 66.6012355 95.70638657 66.61927414 C89.08866585 66.59809644 89.08866585 66.59809644 85.65777206 64.62945175 C83.71339773 61.08838417 83.86093588 57.81188115 84.04107285 53.89043808 C84.05911972 53.14535995 84.0771666 52.40028183 84.09576035 51.63262558 C84.14271636 49.80134107 84.21445633 47.97072159 84.29107285 46.14043808 C83.31871689 46.20327988 82.34636093 46.26612167 81.34453964 46.33086777 C77.6873953 46.55041117 74.03080847 46.68660918 70.3689537 46.79961777 C68.7940605 46.85945438 67.21981943 46.94097397 65.64727402 47.04571152 C51.91310256 47.93657669 51.91310256 47.93657669 46.90240097 43.62237167 C44.03421883 40.70494974 41.66381536 37.47032427 39.29107285 34.14043808 C37.69448287 32.15698783 36.05498661 30.21445468 34.41607285 28.26543808 C33.73802597 27.4223912 33.0599791 26.57934433 32.36138535 25.71075058 C31.33658066 24.43844589 31.33658066 24.43844589 30.29107285 23.14043808 C29.66508194 22.11238556 29.03909103 21.08433304 28.39413071 20.02512741 C26.60786906 17.91125765 25.62185753 17.21655794 22.89745331 16.58962059 C19.77467905 16.38082756 16.7013871 16.36769804 13.57183456 16.41509628 C11.79306427 16.40638 11.79306427 16.40638 9.97835922 16.39748764 C6.73425577 16.38688677 3.49152055 16.40253518 0.24754858 16.42894006 C-3.14904343 16.44951827 -6.5454483 16.43382569 -9.94205093 16.42124557 C-16.37352953 16.40238073 -22.80461302 16.41138042 -29.23607337 16.43256682 C-40.76005496 16.47028776 -52.28398268 16.47445071 -63.80799282 16.44771451 C-67.18899909 16.44094548 -70.56968682 16.44187391 -73.95066071 16.4594326 C-77.71670012 16.47800672 -81.48240185 16.47936058 -85.24847794 16.47759628 C-86.37062698 16.48845764 -87.49277603 16.499319 -88.6489296 16.51050949 C-89.67235458 16.5066423 -90.69577957 16.50277512 -91.75021744 16.49879074 C-93.08583316 16.50356666 -93.08583316 16.50356666 -94.44843102 16.50843906 C-96.70892715 16.14043808 -96.70892715 16.14043808 -98.49150276 14.86413479 C-100.20184655 12.44253557 -100.12134485 10.07078596 -100.2050209 7.17559433 C-99.46174621 4.12641233 -98.18230071 3.06018593 -95.70892715 1.14043808 C-92.9749639 0.73674112 -90.63734327 0.57586032 -87.90326309 0.59453964 C-87.11837006 0.58420197 -86.33347702 0.57386429 -85.52479935 0.56321335 C-82.91409365 0.53361718 -80.3041634 0.5322789 -77.69330215 0.53106308 C-75.84426839 0.51603747 -73.99524783 0.49930137 -72.14624405 0.48095322 C-67.24279637 0.43711085 -62.33952597 0.41729176 -57.4359169 0.40221786 C-52.60883331 0.38311736 -47.78196619 0.34083831 -42.9550209 0.30059433 C-34.38309179 0.23167629 -25.81151547 0.20105432 -17.23934555 0.18342972 C-11.49171738 0.16607061 -5.74673961 0.10191363 0 0 Z M99.29107285 27.14043808 C99.29107285 35.06043808 99.29107285 42.98043808 99.29107285 51.14043808 C107.21107285 51.14043808 115.13107285 51.14043808 123.29107285 51.14043808 C123.29107285 43.22043808 123.29107285 35.30043808 123.29107285 27.14043808 C115.37107285 27.14043808 107.45107285 27.14043808 99.29107285 27.14043808 Z " fill="#003057" transform="translate(1546.708927154541,226.85956192016602)"/>
<path d="M0 0 C1.0304393 -0.00145523 2.0608786 -0.00291046 3.12254333 -0.00440979 C5.29876537 -0.00275109 7.47499916 0.00880684 9.65112305 0.02954102 C12.98732129 0.05851756 16.32193297 0.05014456 19.65820312 0.03710938 C21.77214316 0.04334607 23.88607817 0.05173647 26 0.0625 C27.00003555 0.05956436 28.00007111 0.05662872 29.03041077 0.05360413 C29.95824875 0.0662883 30.88608673 0.07897247 31.84204102 0.09204102 C33.06637596 0.10014549 33.06637596 0.10014549 34.31544495 0.1084137 C36.95784804 0.59204684 37.81415331 1.38566604 39.43359375 3.49609375 C40.336915 6.20605749 40.56844697 7.82479138 40.59472656 10.61279297 C40.60433411 11.4372995 40.61394165 12.26180603 40.62384033 13.11129761 C40.63021515 14.44259201 40.63021515 14.44259201 40.63671875 15.80078125 C40.64241882 16.71691193 40.6481189 17.6330426 40.6539917 18.57693481 C40.66343702 20.51530809 40.66997382 22.45369739 40.67382812 24.39208984 C40.68353386 27.35282477 40.71456161 30.31286548 40.74609375 33.2734375 C40.75262405 35.15754797 40.75787441 37.04166339 40.76171875 38.92578125 C40.77406555 39.80926239 40.78641235 40.69274353 40.7991333 41.60299683 C40.7801351 46.86237509 40.34324274 50.58644476 36.43359375 54.49609375 C34.75205347 54.2600151 33.0712748 54.01667004 31.39581299 53.74073792 C19.33096633 51.89370113 5.33356716 50.57180389 -5.43530273 57.28436279 C-18.97425844 67.5037095 -30.24671808 80.89230584 -41.06977844 93.86401367 C-42.84917471 95.80445416 -43.89641477 96.44348383 -46.52633667 96.6499939 C-47.32701569 96.66285431 -48.1276947 96.67571472 -48.95263672 96.68896484 C-49.86052948 96.70502777 -50.76842224 96.7210907 -51.7038269 96.73764038 C-55.85283696 96.78204504 -60.00168696 96.8231438 -64.15087891 96.84619141 C-66.34109104 96.86276669 -68.53124874 96.89007716 -70.72119141 96.92822266 C-73.87561153 96.9828961 -77.02876411 97.00484973 -80.18359375 97.01953125 C-81.16286835 97.04220062 -82.14214294 97.06487 -83.15109253 97.08822632 C-89.9173524 97.0671323 -89.9173524 97.0671323 -93.22314453 94.15869141 C-94.94124652 90.75308975 -94.6643379 89.10358347 -93.56640625 85.49609375 C-91.56640625 82.49609375 -91.56640625 82.49609375 -88.56640625 81.49609375 C-86.1875555 81.77109161 -83.81438692 82.09596871 -81.4453125 82.4453125 C-66.33312481 84.11175374 -53.5883628 83.28510874 -41.140625 73.82421875 C-28.21550081 63.22903318 -15.0734484 50.69010121 -13.23828125 33.34375 C-12.68800042 25.60346697 -13.07888903 17.79948144 -14.25360107 10.12831116 C-14.69769385 6.9182579 -14.79868889 4.93633465 -13.26782227 2.03491211 C-8.99346934 -0.39990456 -4.83540913 -0.05442912 0 0 Z " fill="#003157" transform="translate(1565.56640625,31.50390625)"/>
<path d="M0 0 C1.28241074 -0.03377747 1.28241074 -0.03377747 2.59072876 -0.0682373 C6.51742633 -0.1393906 10.44393504 -0.19680734 14.37109375 -0.23535156 C16.43708541 -0.26190922 18.50294575 -0.30277982 20.56835938 -0.35839844 C23.55441623 -0.43784794 26.53794097 -0.47071618 29.52490234 -0.49414062 C30.89722519 -0.54362854 30.89722519 -0.54362854 32.29727173 -0.59411621 C38.46774911 -0.57505814 41.64275787 0.84475833 46.02255249 5.19061279 C48.38640814 7.80613114 50.70000593 10.44410549 52.92945862 13.17552185 C68.35457764 32.91455983 68.35457764 32.91455983 90.09750366 43.30004883 C98.81063217 44.14997071 107.61866669 43.77319774 116.29075623 42.60011292 C121.43217648 41.94228974 121.43217648 41.94228974 123.78881836 43.49438477 C125.60957612 46.43305711 125.99019614 48.97013844 126.02197266 52.34130859 C126.0315802 53.16581512 126.04118774 53.99032166 126.05108643 54.83981323 C126.05746124 56.17110764 126.05746124 56.17110764 126.06396484 57.52929688 C126.06966492 58.44542755 126.07536499 59.36155823 126.08123779 60.30545044 C126.09068311 62.24382371 126.09721992 64.18221301 126.10107422 66.12060547 C126.11077996 69.0813404 126.14180771 72.0413811 126.17333984 75.00195312 C126.17987014 76.88606359 126.18512051 78.77017901 126.18896484 80.65429688 C126.20131165 81.53777802 126.21365845 82.42125916 126.22637939 83.33151245 C126.20738119 88.59089072 125.77048884 92.31496038 121.86083984 96.22460938 C120.40926207 96.33838529 118.95226302 96.38414691 117.49633789 96.40161133 C116.56834885 96.41444656 115.6403598 96.4272818 114.68424988 96.44050598 C113.67389175 96.44789291 112.66353363 96.45527985 111.62255859 96.46289062 C110.59024612 96.47096237 109.55793365 96.47903412 108.49433899 96.48735046 C106.30443003 96.50121019 104.11449929 96.51192385 101.92456055 96.51977539 C98.57282586 96.53698366 95.22207833 96.580853 91.87060547 96.625 C89.74626379 96.63512674 87.6219137 96.6436429 85.49755859 96.65039062 C84.49327316 96.66789871 83.48898773 96.6854068 82.45426941 96.70344543 C75.66787475 96.68226654 75.66787475 96.68226654 72.1550293 94.69018555 C70.28837484 91.13399929 70.93273249 88.1652734 71.51708984 84.34960938 C73.19945789 68.5452174 73.11319226 54.72250549 63.16552734 41.60351562 C52.65825461 28.79176811 40.05496177 15.79556241 22.89599609 13.87304688 C15.33164908 13.29709157 7.72907125 13.67660252 0.22731018 14.79855347 C-4.72009675 15.50282906 -4.72009675 15.50282906 -7.05688477 13.95141602 C-8.6930109 11.34092196 -9.01639995 9.29361447 -9.13916016 6.22460938 C-6.87807728 1.37943178 -5.21246477 0.13076644 0 0 Z " fill="#003157" transform="translate(1480.13916015625,263.775390625)"/>
<path d="M0 0 C8.25 0 16.5 0 25 0 C25 8.25 25 16.5 25 25 C16.75 25 8.5 25 0 25 C0 16.75 0 8.5 0 0 Z " fill="#0DBDBD" transform="translate(1706,183)"/>
<path d="M0 0 C8.25 0 16.5 0 25 0 C25 7.92 25 15.84 25 24 C16.75 24 8.5 24 0 24 C0 16.08 0 8.16 0 0 Z " fill="#0DBEBE" transform="translate(1566,321)"/>
<path d="M0 0 C8.25 0 16.5 0 25 0 C25 7.92 25 15.84 25 24 C16.75 24 8.5 24 0 24 C0 16.08 0 8.16 0 0 Z " fill="#0DBEBE" transform="translate(1566,47)"/>
<path d="M0 0 C1.65 0 3.3 0 5 0 C5.66 1.98 6.32 3.96 7 6 C7.66 4.02 8.32 2.04 9 0 C10.98 0 12.96 0 15 0 C15 6.6 15 13.2 15 20 C10 20 5 20 0 20 C0 13.4 0 6.8 0 0 Z " fill="#003057" transform="translate(1425,340)"/>
<path d="M0 0 C3.63 0 7.26 0 11 0 C11 1.32 11 2.64 11 4 C10.01 4 9.02 4 8 4 C8 9.28 8 14.56 8 20 C6.68 20 5.36 20 4 20 C4 14.72 4 9.44 4 4 C2.68 4 1.36 4 0 4 C0 2.68 0 1.36 0 0 Z " fill="#003057" transform="translate(1413,340)"/>
</svg>
